<svg width="100%" height="79" viewBox="0 0 296 79" fill="none" xmlns="http://www.w3.org/2000/svg">
<path d="M313 -43.0529C290.497 -49.702 238.616 -56.351 211.122 -29.7547C183.627 -3.15841 117.835 -5.77807 88.3765 -10.4124C67.919 -13.6362 21.6031 -16.0944 0 -0.136589" stroke="#FECC67" stroke-width="0.604462"/>
<path d="M313 -38.9196C290.497 -45.5687 238.616 -52.2178 211.122 -25.6215C183.627 0.974831 117.835 -1.64483 88.3765 -6.2792C67.919 -9.50299 21.6031 -11.9611 0 3.99665" stroke="#FECC67" stroke-width="0.604462"/>
<path d="M313 -34.7864C290.497 -41.4355 238.616 -48.0846 211.122 -21.4882C183.627 5.10807 117.835 2.48841 88.3765 -2.14596C67.919 -5.36975 21.6031 -7.8279 0 8.12989" stroke="#FECC67" stroke-width="0.604462"/>
<path d="M313 -30.6532C290.497 -37.3022 238.616 -43.9513 211.122 -17.355C183.627 9.24131 117.835 6.62165 88.3765 1.98728C67.919 -1.23651 21.6031 -3.69466 0 12.2631" stroke="#FECC67" stroke-width="0.604462"/>
<path d="M313 -26.5199C290.497 -33.169 238.616 -39.8181 211.122 -13.2218C183.627 13.3746 117.835 10.7549 88.3765 6.12052C67.919 2.89672 21.6031 0.438581 0 16.3964" stroke="#FECC67" stroke-width="0.604462"/>
<path d="M313 -22.3867C290.497 -29.0358 238.616 -35.6848 211.122 -9.08853C183.627 17.5078 117.835 14.8881 88.3765 10.2538C67.919 7.02996 21.6031 4.57182 0 20.5296" stroke="#FECC67" stroke-width="0.604462"/>
<path d="M313 -18.2534C290.497 -24.9025 238.616 -31.5516 211.122 -4.95529C183.627 21.641 117.835 19.0214 88.3765 14.387C67.919 11.1632 21.6031 8.70506 0 24.6628" stroke="#FECC67" stroke-width="0.604462"/>
<path d="M313 -14.1202C290.497 -20.7693 238.616 -27.4184 211.122 -0.822047C183.627 25.7743 117.835 23.1546 88.3765 18.5202C67.919 15.2964 21.6031 12.8383 0 28.7961" stroke="#FECC67" stroke-width="0.604462"/>
<path d="M313 -9.98696C290.497 -16.636 238.616 -23.2851 211.122 3.31119C183.627 29.9075 117.835 27.2878 88.3765 22.6535C67.919 19.4297 21.6031 16.9715 0 32.9293" stroke="#FECC67" stroke-width="0.604462"/>
<path d="M313 -5.85373C290.497 -12.5028 238.616 -19.1519 211.122 7.44443C183.627 34.0407 117.835 31.4211 88.3765 26.7867C67.919 23.5629 21.6031 21.1048 0 37.0626" stroke="#FECC67" stroke-width="0.604462"/>
<path d="M313 -1.72049C290.497 -8.36956 238.616 -15.0186 211.122 11.5777C183.627 38.174 117.835 35.5543 88.3765 30.92C67.919 27.6962 21.6031 25.238 0 41.1958" stroke="#FECC67" stroke-width="0.604462"/>
<path d="M313 2.41275C290.497 -4.23632 238.616 -10.8854 211.122 15.7109C183.627 42.3072 117.835 39.6876 88.3765 35.0532C67.919 31.8294 21.6031 29.3713 0 45.329" stroke="#FECC67" stroke-width="0.604462"/>
<path d="M313 6.54599C290.497 -0.103085 238.616 -6.75216 211.122 19.8442C183.627 46.4405 117.835 43.8208 88.3765 39.1864C67.919 35.9626 21.6031 33.5045 0 49.4623" stroke="#FECC67" stroke-width="0.604462"/>
<path d="M313 10.6792C290.497 4.03015 238.616 -2.61892 211.122 23.9774C183.627 50.5737 117.835 47.954 88.3765 43.3197C67.919 40.0959 21.6031 37.6377 0 53.5955" stroke="#FECC67" stroke-width="0.604462"/>
<path d="M313 14.8125C290.497 8.16339 238.616 1.51432 211.122 28.1106C183.627 54.7069 117.835 52.0873 88.3765 47.4529C67.919 44.2291 21.6031 41.771 0 57.7288" stroke="#FECC67" stroke-width="0.604462"/>
<path d="M313 18.9457C290.497 12.2966 238.616 5.64756 211.122 32.2439C183.627 58.8402 117.835 56.2205 88.3765 51.5862C67.919 48.3624 21.6031 45.9042 0 61.862" stroke="#FECC67" stroke-width="0.604462"/>
<path d="M313 23.079C290.497 16.4299 238.616 9.7808 211.122 36.3771C183.627 62.9734 117.835 60.3538 88.3765 55.7194C67.919 52.4956 21.6031 50.0375 0 65.9952" stroke="#FECC67" stroke-width="0.604462"/>
<path d="M313 27.2122C290.497 20.5631 238.616 13.914 211.122 40.5104C183.627 67.1067 117.835 64.487 88.3765 59.8526C67.919 56.6288 21.6031 54.1707 0 70.1285" stroke="#FECC67" stroke-width="0.604462"/>
<path d="M313 31.3454C290.497 24.6964 238.616 18.0473 211.122 44.6436C183.627 71.2399 117.835 68.6202 88.3765 63.9859C67.919 60.7621 21.6031 58.3039 0 74.2617" stroke="#FECC67" stroke-width="0.604462"/>
<path d="M313 35.4787C290.497 28.8296 238.616 22.1805 211.122 48.7768C183.627 75.3731 117.835 72.7535 88.3765 68.1191C67.919 64.8953 21.6031 62.4372 0 78.395" stroke="#FECC67" stroke-width="0.604462"/>
</svg>
