<svg width="1440" height="1000" viewBox="0 0 1440 1000" fill="none" xmlns="http://www.w3.org/2000/svg">
<path d="M860.044 528.213C875.667 342.432 994.115 181.089 1166.68 110.528L1437 0V1024H-18.5L415.338 980.308C653.101 956.362 840.02 766.339 860.044 528.213Z" fill="#FBF3E3"/>
<path d="M952.544 528.213C968.167 342.432 1086.62 181.089 1259.18 110.528L1529.5 0V1024H74L507.838 980.308C745.601 956.362 932.52 766.339 952.544 528.213Z" fill="#FFEECC"/>
<path d="M1065.54 548.213C1081.17 362.432 1199.62 201.089 1372.18 130.528L1642.5 20V1044H187L620.838 1000.31C858.601 976.362 1045.52 786.339 1065.54 548.213Z" fill="#FFDD99" fill-opacity="0.4"/>
</svg>
