<svg width="427" height="168" viewBox="0 0 427 168" fill="none" xmlns="http://www.w3.org/2000/svg">
<g clip-path="url(#clip0_636_3580)">
<path d="M-0.000488538 65.0107C0.373856 57.3666 2.23061 50.1414 5.38259 43.3029C7.55379 38.5908 10.294 34.2895 13.5358 30.3668C19.4505 23.2141 26.5406 17.7932 34.6713 13.951C38.7442 12.0259 42.9668 10.576 47.3242 9.60137C49.0686 9.20668 50.828 8.87644 52.5949 8.64285C53.8677 8.47369 55.1555 8.35287 56.4357 8.24816C58.5096 8.07095 60.5835 8.03068 62.6573 8.07901C64.5665 8.11928 66.4682 8.28038 68.3698 8.50591C69.6501 8.65896 70.9229 8.85227 72.1881 9.06975C74.9733 9.5611 77.7135 10.2619 80.4162 11.1398C86.1662 13.0247 91.5717 15.7069 96.6029 19.2511C103.79 24.3176 109.742 30.7051 114.302 38.5666C117.544 44.1486 119.812 50.1575 121.107 56.5934C121.504 58.5588 121.774 60.5402 121.976 62.5459C122.305 65.8887 122.32 69.2395 122.103 72.5822C121.871 76.2391 121.25 79.8397 120.314 83.3757C118.27 91.0842 114.848 98.0195 110.147 104.222C104.434 111.753 97.4265 117.512 89.2882 121.693C84.7811 124.012 80.0793 125.72 75.1904 126.848C73.5283 127.234 71.8512 127.557 70.1667 127.806C69.0212 127.975 67.8607 128.088 66.7002 128.209C63.96 128.499 61.2273 128.443 58.4871 128.41C56.7427 128.394 55.0132 128.169 53.2762 127.959C52.0409 127.806 50.8131 127.613 49.5852 127.387C45.9391 126.727 42.3753 125.712 38.8939 124.383C33.1889 122.2 27.8732 119.212 22.9768 115.378C16.7627 110.504 11.5892 104.584 7.57625 97.512C4.54406 92.1716 2.38034 86.4446 1.10757 80.3391C0.718253 78.4703 0.426264 76.5694 0.224118 74.6604C0.104328 73.5488 0.0219721 72.4373 -0.0229492 71.3257M70.249 86.7829C70.3014 86.5655 70.3613 86.4366 70.3613 86.3158C70.3763 85.8727 70.3763 85.4217 70.3763 84.9787C70.3763 73.3636 70.3763 61.7485 70.3763 50.1334C70.3763 49.7306 70.3763 49.3279 70.3763 48.9251C70.3763 48.7963 70.4063 48.6593 70.4212 48.5305C70.4287 48.4338 70.6084 48.2969 70.6982 48.321C70.9453 48.3774 71.1849 48.4419 71.4245 48.4902C73.678 48.9413 75.8492 49.6823 77.9381 50.6892C80.8954 52.1149 83.0891 54.4024 84.3918 57.6244C85.0731 59.3159 85.5448 61.0719 85.7169 62.9084C85.8667 64.5516 86.0089 66.1947 86.0015 67.854C85.994 70.0852 85.9865 72.3164 85.7619 74.5476C85.5448 76.6983 85.0282 78.7523 84.1821 80.7176C83.8827 81.4023 83.5233 82.0628 83.104 82.675C81.6591 84.7531 79.8472 86.348 77.6461 87.4273C75.9016 88.2811 74.0748 88.853 72.2031 89.2799C71.0277 89.5538 69.8447 89.7632 68.6468 89.9243C67.1644 90.1257 65.682 90.3271 64.1847 90.3593C62.2755 90.3996 60.3663 90.3754 58.4572 90.3593C57.963 90.3593 57.4539 90.3512 56.9673 90.2707C55.8592 90.0935 54.7362 90.0532 53.6281 89.876C51.5318 89.5538 49.4579 89.1108 47.4365 88.4342C45.6845 87.8462 44.0374 87.0326 42.5101 85.913C40.3539 84.3182 38.8265 82.2158 37.8832 79.598C37.1495 77.5762 36.7901 75.482 36.6628 73.3313C36.6254 72.7111 36.6179 72.0828 36.5805 71.4546C36.3858 68.3696 36.543 65.2926 36.9024 62.2318C37.127 60.3067 37.696 58.4863 38.5046 56.7706C39.418 54.8213 40.7432 53.2425 42.4202 52.0021C43.2812 51.3658 44.1946 50.8422 45.153 50.4233C46.1113 50.0045 47.0846 49.6018 48.0878 49.3198C48.4098 49.2312 48.7242 49.1265 49.0462 49.0299C49.2558 48.9654 49.3756 48.7802 49.3831 48.5305C49.3831 48.4419 49.3831 48.3533 49.3831 48.2646C49.3531 46.2107 49.3232 44.1567 49.2932 42.1027C49.2932 41.9255 49.2558 41.7483 49.2333 41.5711C49.2183 41.4825 49.0536 41.3214 48.9638 41.3294C48.7991 41.3294 48.6269 41.3294 48.4697 41.3616C46.7552 41.6677 45.0332 41.9658 43.3337 42.3927C40.4212 43.1176 37.5687 44.0439 34.8211 45.3327C31.6766 46.8067 28.7716 48.6754 26.2411 51.1886C23.4709 53.9433 21.4345 57.2136 20.2815 61.088C19.1585 64.8415 18.8964 68.6917 19.3981 72.6064C19.9072 76.5452 21.3372 80.0652 23.5757 83.2146C24.7662 84.89 26.1512 86.3721 27.6636 87.7012C29.4679 89.288 31.437 90.6171 33.5183 91.7447C38.4148 94.4109 43.6406 95.9252 49.0462 96.8193C49.8622 96.9562 50.6858 97.0609 51.5093 97.1898C51.6591 97.214 51.8163 97.3992 51.8238 97.5603C51.8687 98.8572 51.8837 100.154 51.719 101.435C51.6366 102.055 51.5917 102.667 51.4195 103.279C51.105 104.431 50.3938 105.092 49.3531 105.365C48.829 105.502 48.2975 105.607 47.7584 105.647C46.0589 105.776 44.3594 105.865 42.6598 105.978C42.1657 106.01 41.6641 106.066 41.1699 106.115C40.7806 106.155 40.4512 106.356 40.1966 106.654C40.002 106.88 39.8298 107.138 39.695 107.411C39.3207 108.152 39.3207 108.95 39.3806 109.763C39.4255 110.359 39.6276 110.899 39.9646 111.366C40.4138 112.003 41.0052 112.381 41.7764 112.349C42.3154 112.325 42.8545 112.333 43.3935 112.285C45.3401 112.132 47.2942 112.132 49.2483 112.115C50.7008 112.099 52.1532 112.083 53.6057 112.083C60.3364 112.091 67.0596 112.099 73.7903 112.132C75.4075 112.132 77.0247 112.236 78.6493 112.285C79.2707 112.309 79.8922 112.325 80.5136 112.349C81.1425 112.381 81.6366 112.091 82.0708 111.64C82.3703 111.318 82.5874 110.931 82.7072 110.504C82.8195 110.126 82.9019 109.723 82.9169 109.32C82.9393 108.555 82.7971 107.806 82.4077 107.146C82.0559 106.55 81.5917 106.139 80.9029 106.098C80.5285 106.074 80.1617 106.002 79.7873 105.994C78.0803 105.97 76.3883 105.776 74.6888 105.663C74.0674 105.623 73.4459 105.51 72.847 105.357C71.7913 105.092 71.0951 104.375 70.8106 103.239C70.7132 102.852 70.6084 102.458 70.5785 102.063C70.4661 100.686 70.3389 99.3082 70.3688 97.9147C70.3688 97.7859 70.3688 97.6409 70.4212 97.5201C70.4661 97.4073 70.5635 97.3026 70.6608 97.2381C70.7656 97.1737 70.8929 97.1495 71.0202 97.1415C72.1806 97.0368 73.3187 96.8112 74.4716 96.6099C77.0546 96.1668 79.5927 95.5144 82.0933 94.6767C85.5148 93.5248 88.7791 92.0105 91.8113 89.9404C94.5365 88.0798 96.9398 85.8486 98.9014 83.0696C101.38 79.5658 102.795 75.6109 103.146 71.2371C103.349 68.6917 103.214 66.1545 102.72 63.6414C101.949 59.6623 100.346 56.1342 97.8532 53.0815C96.1162 50.9469 94.0873 49.191 91.8412 47.7008C89.3181 46.0335 86.6229 44.7688 83.8153 43.7862C79.7424 42.3604 75.5498 41.4825 71.2897 41.0314C71.1624 41.0153 71.0426 41.0072 70.9154 40.9911C70.5485 40.9428 70.3838 40.7575 70.3688 40.3951C70.3613 40.0406 70.3613 39.6782 70.3613 39.3238C70.3389 34.8131 70.3688 30.3023 70.5335 25.7916C70.571 24.7687 70.5635 23.7376 70.7282 22.7227C70.8555 21.9011 70.5635 21.2326 70.0319 20.6687C69.6126 20.2257 69.096 19.9438 68.4971 19.8471C67.8682 19.7424 67.2543 19.8069 66.6553 20.0082C65.8617 20.266 65.0681 20.5399 64.282 20.8137C61.7215 21.7159 59.1535 22.5938 56.5181 23.2302C54.579 23.7054 52.6249 24.1243 50.6708 24.519C47.6162 25.1392 44.554 25.7272 41.4544 26.0816C40.7282 26.1621 40.2191 26.5488 39.8597 27.2093C39.0661 28.6914 39.3806 30.4715 40.1218 31.5106C40.4362 31.9455 40.8255 32.2597 41.3646 32.316C41.7764 32.3563 42.1882 32.4288 42.5999 32.4852C42.9294 32.5255 43.2588 32.5577 43.5882 32.598C44.6588 32.7349 45.7295 32.8718 46.8001 33.0088C47.4964 33.1054 48.2001 33.194 48.8964 33.3229C49.3456 33.4035 49.7799 33.5726 50.1842 33.8062C50.6783 34.0881 51.0452 34.507 51.2698 35.0547C51.4045 35.3769 51.5168 35.7232 51.5692 36.0696C51.689 36.859 51.8088 37.6564 51.8238 38.4619C51.8837 41.7241 51.9885 44.9783 52.0259 48.2405C52.1083 55.6993 52.1233 63.1581 51.9436 70.6249C51.8238 75.6753 51.8313 80.7176 51.8462 85.768C51.8462 85.9936 51.8612 86.211 51.8762 86.4366C51.8837 86.5816 52.0484 86.7668 52.1981 86.8071C52.3179 86.8393 52.4377 86.8715 52.565 86.8957C53.3436 87.0085 54.1297 87.1293 54.9084 87.234C56.8849 87.5159 58.869 87.669 60.868 87.677C62.3204 87.677 63.7729 87.6126 65.2253 87.4998C66.8874 87.3709 68.527 87.1615 70.2341 86.8313L70.249 86.7829Z" fill="#F7A401"/>
<path d="M155.825 0C155.862 0.26581 156.109 0.298029 156.244 0.451072C156.491 0.716882 156.633 1.03908 156.603 1.4096C156.581 1.76401 156.544 2.11843 156.476 2.47284C155.091 9.50472 153.699 16.5286 152.306 23.5604C151.183 29.231 150.045 34.9097 148.914 40.5803C147.896 45.7274 146.878 50.8825 145.86 56.0376C145.059 60.0972 144.243 64.1569 143.442 68.2165C142.483 73.0655 141.54 77.9146 140.582 82.7555C139.87 86.3319 139.144 89.9082 138.433 93.4926C137.669 97.3348 136.913 101.177 136.157 105.019C135.258 109.562 134.352 114.097 133.454 118.64C132.331 124.319 131.223 129.989 130.1 135.668C129.86 136.892 129.613 138.108 129.366 139.333C129.329 139.51 129.284 139.679 129.231 139.848C128.999 140.517 128.34 140.903 127.734 140.726C127.113 140.549 126.678 139.872 126.791 139.196C126.91 138.447 127.06 137.706 127.202 136.965C128.236 131.769 129.276 126.582 130.31 121.387C131.081 117.504 131.844 113.614 132.615 109.731C133.514 105.188 134.42 100.653 135.318 96.1105C136.082 92.2683 136.838 88.4261 137.594 84.584C138.41 80.4841 139.226 76.3761 140.035 72.2762C140.993 67.4271 141.937 62.5781 142.895 57.7372C143.846 52.9365 144.812 48.1358 145.77 43.3351C146.728 38.4861 147.672 33.6371 148.63 28.7961C149.581 23.9954 150.547 19.1947 151.505 14.394C152.284 10.4633 153.055 6.53248 153.826 2.60172C153.901 2.20703 153.998 1.8204 154.065 1.42571C154.155 0.853814 154.387 0.418852 154.911 0.201371C154.979 0.177207 155.024 0.0805485 155.076 0.0161097C155.323 0.0161097 155.578 0.0161097 155.825 0.0161097V0Z" fill="#F7A708"/>
<path d="M243.391 48.0955C243.818 48.603 243.99 49.1185 244.215 49.5937C246.918 55.3288 249.613 61.0638 252.316 66.7989C252.555 67.3144 252.832 67.8138 253.102 68.3132C253.124 68.3454 253.281 68.3534 253.304 68.3132C253.454 68.1038 253.596 67.8863 253.708 67.6527C254.442 66.0981 255.161 64.5435 255.887 62.9809C257.991 58.4702 260.094 53.9675 262.206 49.4568C262.243 49.3762 262.273 49.2957 262.311 49.2151C262.947 47.9425 262.685 48.0713 264.107 48.0633C266.017 48.0633 267.926 48.0633 269.842 48.0633C270.045 48.0633 270.254 48.0955 270.456 48.1438C270.524 48.1599 270.591 48.2566 270.621 48.3291C270.658 48.4499 270.673 48.5869 270.681 48.7238C270.688 49.0782 270.681 49.4407 270.681 49.7951C270.681 59.8475 270.681 69.9 270.681 79.9524C270.681 80.3069 270.681 80.6693 270.681 81.0237C270.666 81.5876 270.561 81.6923 269.992 81.7003C269.371 81.7003 268.749 81.7003 268.12 81.7003C267.125 81.7003 266.129 81.7003 265.133 81.7003C264.968 81.7003 264.804 81.6762 264.639 81.6681C264.497 81.652 264.332 81.4748 264.332 81.3057C264.317 80.8626 264.302 80.4116 264.302 79.9685C264.302 73.7099 264.302 67.4594 264.302 61.2007C264.302 60.7094 264.332 60.2181 264.265 59.7348C264.167 59.7428 264.055 59.7267 264.033 59.767C263.845 60.1133 263.666 60.4678 263.501 60.8222C261.015 66.227 258.53 71.6237 256.044 77.0285C255.864 77.4232 255.722 77.8582 255.438 78.1884C254.532 78.3012 252.031 78.3092 250.968 78.1965C250.691 77.9226 250.571 77.536 250.406 77.1816C247.966 71.9056 245.525 66.6297 243.084 61.3538C242.92 60.9913 242.762 60.6288 242.575 60.2825C242.463 60.0731 242.463 59.7428 242.141 59.7267C241.969 59.9039 242.036 60.1295 242.036 60.3389C242.021 60.8302 242.036 61.3216 242.036 61.8129C242.036 67.7977 242.036 73.7905 242.036 79.7752C242.036 81.9903 242.313 81.6923 240.277 81.7084C239.116 81.7164 237.948 81.7084 236.788 81.7084C236.541 81.7084 236.294 81.7003 236.039 81.6842C235.837 81.6762 235.672 81.4748 235.665 81.2332C235.657 80.8787 235.657 80.5163 235.657 80.1619C235.657 77.4393 235.657 74.7087 235.657 71.9862C235.657 64.5274 235.657 57.0606 235.657 49.6018C235.657 47.9747 235.515 48.0713 237.057 48.0713C238.802 48.0713 240.546 48.0713 242.291 48.0713C242.665 48.0713 243.032 48.0874 243.421 48.0955H243.391Z" fill="#F7A605"/>
<path d="M217.711 112.76C217.764 115.772 217.112 118.6 215.75 121.234C214.073 124.455 211.654 126.816 208.57 128.41C207.027 129.208 205.395 129.748 203.703 129.981C202.221 130.182 200.739 130.255 199.234 130.102C197.399 129.917 195.632 129.474 193.948 128.692C190.182 126.928 187.367 124.093 185.622 120.074C184.732 118.028 184.275 115.861 184.222 113.606C184.185 111.946 184.252 110.303 184.642 108.692C185.885 103.489 188.782 99.7271 193.252 97.367C195.011 96.4327 196.89 95.8849 198.852 95.6916C199.638 95.6191 200.417 95.5064 201.21 95.5305C205.186 95.6433 208.817 96.8435 211.931 99.5579C214.836 102.095 216.678 105.349 217.434 109.312C217.651 110.456 217.696 111.616 217.719 112.776L217.711 112.76ZM210.479 113.001C210.479 111.858 210.404 110.835 210.15 109.836C208.735 104.391 203.876 101.274 199.181 102.377C197.033 102.885 195.236 103.996 193.813 105.784C191.837 108.273 191.133 111.205 191.537 114.411C191.896 117.279 193.192 119.639 195.325 121.403C197.467 123.167 199.87 123.9 202.573 123.4C205.029 122.949 206.983 121.628 208.465 119.51C209.835 117.552 210.509 115.337 210.479 113.001Z" fill="#F7A503"/>
<path d="M230.581 64.8496C230.529 69.7228 228.949 73.9194 225.662 77.3024C223.394 79.6464 220.676 81.1123 217.591 81.797C216.289 82.087 214.971 82.2561 213.638 82.2239C209.753 82.1514 206.196 80.9835 203.104 78.3817C200.117 75.8686 198.193 72.6145 197.399 68.6112C196.725 65.204 196.92 61.8613 198.081 58.6071C199.256 55.2965 201.233 52.6546 203.958 50.6731C205.837 49.3118 207.888 48.3855 210.127 47.9425C211.886 47.5961 213.653 47.4753 215.45 47.6444C217.883 47.87 220.182 48.5546 222.316 49.8273C226.553 52.3485 229.211 56.1584 230.252 61.2491C230.491 62.4251 230.626 63.6253 230.581 64.8415V64.8496ZM223.356 64.761C223.311 62.2479 222.593 59.9764 221.125 57.9627C219.096 55.1757 215.48 53.6534 212.261 54.3541C210.367 54.7649 208.712 55.6026 207.342 57.0364C204.984 59.4931 204.033 62.5137 204.34 66.0256C204.527 68.136 205.253 70.0047 206.473 71.6479C208.165 73.9194 210.367 75.2726 213.054 75.5384C216.154 75.8364 218.774 74.6685 220.833 72.1634C222.555 70.0691 223.334 67.5721 223.356 64.761Z" fill="#F7A503"/>
<path d="M420.733 70.6491C421.175 71.3982 421.557 72.0426 421.939 72.6789C423.399 75.1195 424.866 77.5521 426.326 79.9927C426.551 80.3632 426.76 80.7499 426.963 81.1446C427.045 81.3057 427.007 81.4909 426.903 81.644C425.944 81.7406 420.479 81.7406 419.446 81.644C419.154 81.4345 419.034 81.0882 418.877 80.7821C417.604 78.3254 416.339 75.8686 415.073 73.4039C414.871 73.0172 414.669 72.6225 414.459 72.2278C414.332 72.1876 414.22 72.1231 414.1 72.1231C411.981 72.1151 409.862 72.1151 407.751 72.1151C407.437 72.1151 407.272 72.2762 407.265 72.5742C407.257 72.9286 407.257 73.2911 407.257 73.6455C407.257 75.8364 407.257 78.0193 407.257 80.2102C407.257 80.5646 407.257 80.9271 407.235 81.2815C407.227 81.507 407.047 81.6842 406.823 81.7003C406.696 81.7003 406.576 81.7165 406.448 81.7165C404.622 81.7165 402.795 81.7165 400.968 81.7165C400.803 81.7165 400.639 81.6923 400.474 81.6762C400.332 81.6601 400.182 81.4829 400.167 81.3057C400.159 81.1687 400.145 81.0399 400.145 80.9029C400.145 80.5888 400.145 80.2746 400.145 79.9686C400.145 69.9242 400.145 59.8717 400.145 49.8273C400.145 49.4246 400.144 49.0218 400.152 48.6191C400.159 48.2405 400.324 48.0875 400.713 48.0794C400.923 48.0794 401.125 48.0794 401.335 48.0794C405.363 48.0794 409.391 48.0875 413.419 48.0794C414.542 48.0794 415.665 48.1761 416.773 48.3211C418.218 48.5144 419.618 48.9171 420.936 49.6098C423.541 50.963 425.323 53.0815 426.102 56.1101C426.334 57.0122 426.491 57.9385 426.513 58.881C426.543 60.2664 426.528 61.6518 426.251 63.0131C425.787 65.2523 424.866 67.2097 423.286 68.7804C422.83 69.2395 422.328 69.6342 421.797 69.9886C421.482 70.198 421.16 70.3994 420.748 70.6652L420.733 70.6491ZM407.242 59.9684C407.242 61.3941 407.242 62.8198 407.242 64.2455C407.242 64.5999 407.25 64.9543 407.265 65.3168C407.272 65.5584 407.422 65.7034 407.669 65.7115C407.796 65.7115 407.916 65.7276 408.043 65.7276C410.035 65.7276 412.019 65.7276 414.01 65.7276C414.759 65.7276 415.5 65.639 416.219 65.4134C418.091 64.8335 419.303 63.5689 419.708 61.4827C419.843 60.7819 419.835 60.065 419.79 59.3481C419.655 57.2378 418.712 55.7396 416.863 54.9583C416.009 54.5958 415.118 54.4186 414.197 54.4186C412.086 54.4186 409.975 54.4186 407.864 54.4186C407.736 54.4186 407.609 54.4186 407.497 54.4588C407.429 54.483 407.332 54.5636 407.317 54.628C407.28 54.8455 407.265 55.071 407.265 55.2885C407.265 56.8511 407.265 58.4057 407.265 59.9684H407.242Z" fill="#F7A605"/>
<path d="M289.795 115.796C289.66 115.837 289.503 115.909 289.346 115.917C288.972 115.941 288.597 115.933 288.223 115.933C284.277 115.933 280.332 115.933 276.394 115.933C276.019 115.933 275.645 115.95 275.278 115.966C275.068 115.974 274.919 116.159 274.904 116.409C274.889 116.586 274.881 116.763 274.881 116.94C274.881 118.769 274.881 120.605 274.881 122.434C274.881 122.659 274.904 122.877 274.941 123.094C274.956 123.159 275.039 123.239 275.113 123.263C275.226 123.304 275.353 123.32 275.48 123.32C275.855 123.32 276.229 123.32 276.603 123.32C281.298 123.32 285.984 123.32 290.679 123.32C291.053 123.32 291.427 123.344 291.794 123.352C291.944 123.352 292.011 123.489 292.049 123.602C292.094 123.722 292.094 123.867 292.094 123.996C292.094 125.607 292.094 127.21 292.094 128.821C292.094 128.958 292.079 129.087 292.071 129.224C292.056 129.433 291.862 129.619 291.644 129.635C291.517 129.643 291.397 129.651 291.27 129.651C291.06 129.651 290.858 129.651 290.649 129.651C283.506 129.651 276.364 129.651 269.229 129.651C267.671 129.651 267.791 129.764 267.791 128.161C267.791 117.931 267.791 107.709 267.791 97.4798C267.791 97.3428 267.791 97.214 267.791 97.077C267.776 96.0379 267.851 95.9896 268.735 95.9977C268.982 95.9977 269.236 95.9977 269.483 95.9977C276.289 95.9977 283.102 95.9977 289.907 95.9977C290.237 95.9977 290.574 95.9977 290.903 95.9977C291.031 95.9977 291.15 96.0218 291.27 96.0299C291.412 96.046 291.562 96.2232 291.577 96.3924C291.577 96.4326 291.592 96.481 291.592 96.5212C291.592 98.2611 291.592 100.001 291.592 101.749C291.592 101.837 291.592 101.942 291.555 102.007C291.495 102.111 291.42 102.232 291.322 102.28C291.218 102.337 291.083 102.337 290.956 102.337C290.626 102.337 290.289 102.337 289.96 102.337C285.438 102.337 280.908 102.337 276.386 102.337C276.012 102.337 275.637 102.345 275.263 102.361C275.061 102.361 274.904 102.554 274.889 102.804C274.889 102.941 274.874 103.07 274.874 103.207C274.874 105.035 274.874 106.872 274.874 108.7C274.874 108.918 274.896 109.143 274.934 109.361C274.949 109.433 275.031 109.498 275.098 109.538C275.166 109.578 275.256 109.594 275.338 109.594C275.712 109.602 276.087 109.602 276.461 109.602C280.489 109.602 284.517 109.602 288.545 109.602C288.919 109.602 289.286 109.626 289.66 109.659C289.72 109.659 289.795 109.755 289.833 109.828C289.87 109.9 289.878 109.997 289.878 110.086C289.878 111.874 289.878 113.662 289.87 115.442C289.87 115.531 289.825 115.611 289.795 115.74V115.796Z" fill="#F7A605"/>
<path d="M377.07 61.5149C377.197 61.5632 377.31 61.6357 377.422 61.6438C377.796 61.6679 378.171 61.6679 378.545 61.6679C382.573 61.6679 386.601 61.6679 390.621 61.6679C390.996 61.6679 391.37 61.6921 391.737 61.7002C391.887 61.7002 391.947 61.8371 391.999 61.9499C392.036 62.0224 392.029 62.1271 392.036 62.2157C392.036 63.9152 392.036 65.6068 392.036 67.3063C392.036 67.3949 392.021 67.4835 392.014 67.5721C391.999 67.7413 391.849 67.9265 391.699 67.9346C391.325 67.9588 390.958 67.9829 390.584 67.9829C386.601 67.9829 382.61 67.9829 378.627 67.9829C378.216 67.9829 377.796 68.0071 377.385 68.0232C377.227 68.0232 377.055 68.2004 377.04 68.3535C377.025 68.5307 376.995 68.7079 376.995 68.8851C376.995 70.7619 376.995 72.6386 376.995 74.5154C376.995 74.6926 377.025 74.8698 377.04 75.047C377.048 75.2162 377.182 75.3048 377.28 75.3128C377.692 75.3531 378.111 75.3612 378.523 75.3612C383.045 75.3612 387.574 75.3612 392.096 75.3612C392.68 75.3612 393.257 75.3692 393.841 75.3773C393.99 75.3773 394.155 75.5545 394.17 75.7156C394.185 75.8445 394.208 75.9814 394.208 76.1103C394.208 77.7212 394.208 79.3242 394.208 80.9351C394.208 81.1123 394.17 81.2895 394.125 81.4587C394.103 81.5312 394.028 81.5956 393.961 81.6359C393.893 81.6762 393.803 81.6923 393.721 81.6923C393.392 81.7003 393.055 81.7084 392.725 81.7084C385.628 81.7084 378.53 81.7084 371.432 81.7084C371.058 81.7084 370.684 81.7003 370.317 81.6842C370.115 81.6842 369.95 81.4748 369.943 81.2412C369.935 80.8868 369.935 80.5243 369.935 80.1699C369.935 69.9886 369.935 59.8073 369.935 49.6259C369.935 49.2715 369.935 48.9091 369.943 48.5546C369.95 48.2647 370.137 48.0875 370.429 48.0794C370.721 48.0713 371.013 48.0714 371.298 48.0714C378.313 48.0714 385.328 48.0714 392.343 48.0714C392.553 48.0714 392.755 48.0714 392.965 48.0714C393.631 48.0875 393.713 48.1841 393.728 48.9574C393.728 49.0057 393.728 49.046 393.728 49.0943C393.728 50.5684 393.728 52.0424 393.728 53.5164C393.728 53.7339 393.698 53.9594 393.661 54.1769C393.646 54.2494 393.564 54.3219 393.496 54.3541C393.429 54.3944 393.339 54.4105 393.257 54.4105C392.882 54.4105 392.508 54.4186 392.134 54.4186C387.612 54.4186 383.082 54.4186 378.56 54.4186C378.186 54.4186 377.811 54.4186 377.437 54.4347C377.197 54.4347 377.033 54.5958 377.018 54.8213C377.018 54.9099 377.003 54.9985 377.003 55.0871C377.003 57.0525 377.003 59.0179 377.003 60.9833C377.003 61.1605 377.04 61.3377 377.063 61.5229L377.07 61.5149Z" fill="#F7A605"/>
<path d="M308.131 58.8004C308.131 55.7637 308.131 52.7271 308.131 49.6904C308.131 49.336 308.131 48.9735 308.138 48.6191C308.146 48.2808 308.295 48.1116 308.573 48.0875C308.655 48.0875 308.737 48.0714 308.82 48.0714C310.729 48.0714 312.638 48.0714 314.547 48.0714C314.667 48.0714 314.809 48.0713 314.914 48.1277C315.011 48.1841 315.131 48.2969 315.146 48.4016C315.191 48.756 315.206 49.1104 315.206 49.4648C315.206 52.3646 315.206 55.2724 315.206 58.1721C315.206 61.2088 315.198 64.2455 315.206 67.2822C315.206 68.0393 315.221 68.8045 315.333 69.5536C315.693 72.0104 316.868 73.871 319.009 74.9101C320.364 75.5706 321.802 75.7236 323.269 75.4981C323.718 75.4256 324.168 75.3129 324.594 75.1518C326.638 74.4027 327.896 72.8481 328.51 70.6491C328.69 70.0047 328.802 69.3442 328.81 68.6757C328.81 68.136 328.832 67.6044 328.832 67.0647C328.832 61.2169 328.832 55.361 328.832 49.5132C328.832 49.1104 328.862 48.7157 328.892 48.313C328.892 48.2405 328.989 48.168 329.057 48.1277C329.124 48.0875 329.214 48.0633 329.296 48.0633C331.333 48.0633 333.362 48.0633 335.398 48.0633C335.48 48.0633 335.578 48.0633 335.638 48.1197C335.735 48.1922 335.84 48.2888 335.877 48.3935C335.93 48.5546 335.93 48.7399 335.93 48.9171C335.93 49.4568 335.93 49.9884 335.93 50.5281C335.93 56.1987 335.93 61.8693 335.93 67.5399C335.93 68.8851 335.825 70.2141 335.555 71.5271C334.507 76.7225 331.587 80.041 326.856 81.5151C324.767 82.1675 322.625 82.3608 320.447 82.1192C319.331 81.9984 318.223 81.8373 317.145 81.499C316.022 81.1446 314.959 80.6693 313.956 80.0249C311.141 78.2045 309.396 75.5303 308.587 72.1392C308.258 70.7538 308.093 69.3362 308.101 67.8943C308.101 64.8577 308.101 61.821 308.101 58.7843L308.131 58.8004Z" fill="#F7A504"/>
<path d="M277.988 64.8979C277.988 59.7186 277.988 54.5313 277.988 49.3521C277.988 48.0874 277.921 48.0633 279.119 48.0713C283.102 48.0713 287.093 48.0713 291.076 48.0713C292.865 48.0713 294.639 48.2566 296.369 48.7963C298.068 49.3279 299.596 50.1898 300.876 51.5269C302.104 52.8076 302.905 54.3461 303.332 56.1101C303.698 57.6324 303.826 59.187 303.713 60.7577C303.639 61.7807 303.549 62.8037 303.279 63.7944C302.351 67.2983 300.284 69.6986 297.14 71.0277C296.137 71.4546 295.089 71.7123 294.01 71.8815C292.977 72.0426 291.944 72.099 290.903 72.099C289.286 72.099 287.662 72.099 286.044 72.099C285.797 72.099 285.55 72.1231 285.303 72.1634C285.236 72.1714 285.138 72.2681 285.138 72.3325C285.101 72.6386 285.079 72.9528 285.079 73.2669C285.079 75.5867 285.079 77.9146 285.079 80.2343C285.079 80.5888 285.056 80.9432 285.041 81.3056C285.034 81.4667 284.861 81.652 284.727 81.6681C284.562 81.6842 284.397 81.7003 284.233 81.7003C282.406 81.7003 280.579 81.7003 278.752 81.7003C278.587 81.7003 278.415 81.6923 278.258 81.6439C278.146 81.6117 278.033 81.5151 278.026 81.3701C278.003 81.0157 277.988 80.6613 277.988 80.2988C277.988 75.1598 277.988 70.0208 277.988 64.8899V64.8979ZM285.086 60.0892C285.086 61.6115 285.086 63.1258 285.086 64.6482C285.086 64.914 285.094 65.1879 285.146 65.4456C285.161 65.5423 285.296 65.6631 285.401 65.6873C285.603 65.7356 285.812 65.7276 286.022 65.7276C287.684 65.7276 289.346 65.7276 291.008 65.7276C291.338 65.7276 291.675 65.7115 292.004 65.6953C292.798 65.647 293.569 65.4376 294.287 65.0832C295.792 64.3421 296.691 63.0775 296.938 61.3055C297.065 60.4114 297.065 59.5253 296.923 58.6393C296.878 58.3735 296.818 58.1157 296.743 57.866C296.324 56.5048 295.463 55.5865 294.258 55.0468C293.374 54.6521 292.438 54.4347 291.472 54.4347C289.563 54.4347 287.654 54.4347 285.745 54.4347C285.618 54.4347 285.49 54.4347 285.378 54.4749C285.273 54.5152 285.153 54.5877 285.146 54.7488C285.138 55.0629 285.109 55.369 285.109 55.6832C285.109 57.1572 285.109 58.6312 285.109 60.1053L285.086 60.0892Z" fill="#F7A605"/>
<path d="M157.869 118.704C158.22 118.761 158.408 119.027 158.625 119.22C160.833 121.113 163.297 122.434 166.029 123.191C167.16 123.505 168.313 123.658 169.481 123.594C170.274 123.553 171.046 123.376 171.779 123.046C172.281 122.82 172.723 122.482 173.045 121.999C173.763 120.936 173.733 119.196 172.767 118.181C172.228 117.609 171.6 117.174 170.896 116.892C170.199 116.61 169.496 116.336 168.784 116.103C167.437 115.652 166.082 115.249 164.742 114.782C163.798 114.451 162.862 114.073 161.949 113.662C160.661 113.09 159.583 112.196 158.662 111.068C157.966 110.215 157.479 109.248 157.217 108.144C156.805 106.421 156.79 104.705 157.217 102.981C157.741 100.863 158.894 99.2196 160.534 97.947C161.762 96.9965 163.139 96.3843 164.599 95.9977C166.097 95.603 167.617 95.4339 169.159 95.45C172.97 95.4902 176.526 96.5454 179.873 98.4866C180.127 98.6316 180.367 98.8088 180.614 98.978C180.734 99.0585 180.786 99.3082 180.734 99.4613C180.719 99.5016 180.711 99.5499 180.689 99.5902C179.895 101.411 179.109 103.231 178.308 105.043C178.188 105.317 178.061 105.357 177.821 105.22C177.641 105.116 177.462 105.003 177.275 104.898C176.294 104.31 175.276 103.811 174.235 103.376C173.074 102.893 171.877 102.514 170.664 102.248C170.012 102.103 169.353 102.015 168.687 101.982C167.811 101.942 166.943 102.055 166.127 102.409C165.827 102.546 165.528 102.723 165.266 102.933C164.824 103.303 164.577 103.811 164.517 104.415C164.375 105.76 164.861 106.783 165.932 107.444C166.501 107.798 167.122 108.08 167.729 108.346C168.919 108.877 170.155 109.256 171.382 109.651C172.85 110.126 174.302 110.666 175.717 111.31C176.915 111.858 177.963 112.639 178.884 113.63C180.045 114.878 180.741 116.376 180.943 118.108C181.1 119.486 181.108 120.863 180.801 122.232C180.389 124.077 179.506 125.591 178.203 126.856C177.072 127.951 175.755 128.692 174.325 129.2C172.865 129.715 171.352 130.029 169.81 130.054C169.481 130.054 169.144 130.054 168.814 130.07C165.947 130.118 163.214 129.458 160.571 128.314C158.789 127.54 157.135 126.534 155.637 125.237C155.54 125.156 155.443 125.068 155.345 124.979C155.143 124.794 155.091 124.617 155.196 124.399C155.997 122.635 156.79 120.871 157.599 119.107C157.666 118.954 157.794 118.833 157.876 118.712L157.869 118.704Z" fill="#F7A503"/>
<path d="M195.063 53.1942C194.914 53.6453 194.607 53.9514 194.345 54.2897C193.274 55.651 192.316 57.1169 191.155 58.3977C191.133 58.4218 191.08 58.4218 191.02 58.4379C190.654 58.2366 190.421 57.858 190.122 57.5519C188.909 56.2953 187.509 55.3529 185.914 54.7569C181.265 53.0251 176.361 55.4979 174.414 60.0086C173.831 61.3618 173.509 62.7795 173.479 64.2777C173.449 65.6712 173.568 67.0486 174.018 68.3615C175.133 71.6318 177.192 73.8549 180.314 74.8859C182.336 75.5545 184.327 75.3934 186.296 74.6121C187.674 74.0643 188.924 73.283 190.055 72.2923C190.377 72.0103 190.691 71.7284 191.013 71.4465C191.148 71.5271 191.275 71.5754 191.35 71.664C192.563 73.0736 193.776 74.4832 194.981 75.9008C195.138 76.0861 195.116 76.2794 194.929 76.4808C194.719 76.6983 194.517 76.9238 194.3 77.1332C192.293 79.0664 190.01 80.4841 187.449 81.3781C185.817 81.95 184.14 82.2642 182.433 82.232C178.667 82.1756 175.231 81.0237 172.251 78.5026C169.159 75.8767 167.272 72.4534 166.516 68.2971C166.171 66.3881 166.119 64.463 166.344 62.562C166.92 57.7049 169.069 53.8144 172.775 50.9389C174.931 49.2635 177.349 48.2163 179.977 47.8055C185.136 46.992 189.763 48.3935 193.85 51.8813C194.3 52.2679 194.764 52.6545 195.063 53.2023V53.1942Z" fill="#F7A503"/>
<path d="M244.604 119.413C244.687 119.453 244.777 119.47 244.829 119.534C246.042 120.944 247.255 122.353 248.468 123.763C248.498 123.795 248.52 123.835 248.543 123.867C248.64 124.004 248.647 124.238 248.528 124.359C247.981 124.907 247.457 125.487 246.865 125.978C244.47 127.992 241.789 129.353 238.787 129.925C237.567 130.158 236.324 130.263 235.066 130.134C233.868 130.013 232.678 129.868 231.51 129.522C225.498 127.766 221.163 122.587 220.1 116.32C219.553 113.098 219.666 109.908 220.714 106.815C221.964 103.11 224.195 100.251 227.31 98.1886C229.166 96.9562 231.188 96.1427 233.337 95.7802C238.637 94.8942 243.369 96.328 247.539 99.9446C247.861 100.227 248.161 100.541 248.453 100.855C248.535 100.943 248.565 101.088 248.617 101.201C248.018 102.16 245.383 105.623 244.664 106.413C244.567 106.356 244.44 106.324 244.35 106.243C244.08 105.97 243.826 105.664 243.556 105.39C242.261 104.085 240.771 103.158 239.079 102.587C235.246 101.298 230.888 102.981 228.62 106.719C227.647 108.322 227.115 110.086 227.055 112.011C226.995 113.775 227.175 115.49 227.864 117.109C229.107 120.041 231.135 122.007 234.033 122.893C236.152 123.545 238.226 123.304 240.24 122.418C241.512 121.854 242.688 121.105 243.736 120.138C244.013 119.88 244.245 119.55 244.604 119.413Z" fill="#F7A503"/>
<path d="M344.629 96.0702C344.869 96.0541 345.033 96.0299 345.198 96.0299C347.07 96.0299 348.934 96.0299 350.798 96.0299C350.963 96.0299 351.128 96.0541 351.292 96.0702C351.382 96.0782 351.495 96.2796 351.457 96.3763C351.337 96.6582 351.233 96.9482 351.098 97.222C349.608 100.21 348.111 103.199 346.613 106.179C344.726 109.949 342.84 113.726 340.961 117.504C340.863 117.697 340.781 117.907 340.661 118.092C340.347 118.6 340.279 119.155 340.287 119.751C340.302 122.563 340.287 125.382 340.287 128.193C340.287 128.507 340.287 128.821 340.279 129.127C340.272 129.506 340.115 129.659 339.725 129.675C339.68 129.675 339.643 129.675 339.598 129.675C337.734 129.675 335.862 129.675 333.998 129.675C333.87 129.675 333.751 129.659 333.623 129.651C333.459 129.635 333.294 129.482 333.286 129.321C333.272 128.966 333.257 128.612 333.257 128.249C333.257 125.656 333.257 123.07 333.257 120.476C333.257 120.162 333.242 119.848 333.257 119.542C333.272 119.171 333.167 118.849 333.002 118.527C331.946 116.449 330.906 114.371 329.857 112.293C327.327 107.266 324.804 102.248 322.273 97.222C322.139 96.9482 322.011 96.6662 321.891 96.3843C321.839 96.2716 321.929 96.0782 322.026 96.0702C322.153 96.0621 322.273 96.038 322.401 96.038C324.31 96.038 326.219 96.038 328.128 96.038C328.255 96.038 328.375 96.046 328.502 96.0541C328.682 96.0702 328.817 96.1749 328.907 96.3279C329.109 96.6662 329.296 97.0126 329.483 97.359C331.662 101.467 333.833 105.583 336.012 109.691C336.199 110.037 336.401 110.376 336.603 110.706C336.663 110.811 336.865 110.803 336.925 110.706C337.082 110.44 337.247 110.182 337.382 109.916C339.179 106.445 340.976 102.973 342.772 99.5096C343.274 98.535 343.783 97.5603 344.292 96.5857C344.375 96.4327 344.479 96.2957 344.622 96.0782L344.629 96.0702Z" fill="#F7A504"/>
<path d="M352.752 48.0713C356.571 48.0713 360.389 48.0713 364.207 48.0713C364.582 48.0713 364.956 48.0875 365.33 48.0955C365.495 48.0955 365.66 48.2647 365.675 48.4177C365.69 48.5466 365.705 48.6835 365.705 48.8124C365.705 50.512 365.705 52.2035 365.705 53.9031C365.705 54.0319 365.682 54.1689 365.637 54.2897C365.615 54.3622 365.533 54.4508 365.473 54.4588C365.188 54.4991 364.896 54.5313 364.612 54.5313C362.291 54.5313 359.962 54.5313 357.641 54.5313C357.312 54.5313 356.975 54.5313 356.646 54.5474C356.369 54.5555 356.219 54.7408 356.204 55.071C356.196 55.2482 356.196 55.4254 356.196 55.6026C356.196 55.9168 356.196 56.2309 356.196 56.537C356.196 64.3502 356.196 72.1634 356.196 79.9847C356.196 80.4277 356.181 80.8787 356.167 81.3218C356.167 81.4829 355.994 81.644 355.837 81.6601C355.672 81.6762 355.508 81.6923 355.343 81.6923C353.561 81.6923 351.772 81.6923 349.99 81.6923C349.788 81.6923 349.578 81.6681 349.376 81.6278C349.309 81.6117 349.234 81.5231 349.204 81.4506C349.159 81.3298 349.129 81.1929 349.121 81.064C349.106 80.6613 349.106 80.2585 349.106 79.8558C349.106 71.9942 349.106 64.1408 349.106 56.2792C349.106 55.8362 349.084 55.3851 349.069 54.9421C349.069 54.781 348.897 54.5877 348.762 54.5797C348.388 54.5555 348.021 54.5313 347.646 54.5313C345.363 54.5313 343.079 54.5313 340.796 54.5313C339.583 54.5313 339.605 54.5152 339.605 53.2989C339.605 51.9135 339.605 50.5281 339.605 49.1426C339.605 48.9171 339.62 48.6996 339.635 48.4741C339.65 48.2647 339.845 48.0713 340.055 48.0633C340.384 48.0552 340.721 48.0472 341.05 48.0472C344.951 48.0472 348.852 48.0472 352.76 48.0472L352.752 48.0713Z" fill="#F7A504"/>
<path d="M308.093 96.0299C311.912 96.0299 315.73 96.0299 319.548 96.0299C319.878 96.0299 320.215 96.0299 320.544 96.0299C320.963 96.0299 321.046 96.2716 321.046 96.626C321.046 98.3658 321.046 100.106 321.046 101.846C321.046 101.934 321.031 102.023 321.023 102.111C321.008 102.272 320.851 102.425 320.679 102.434C320.349 102.45 320.012 102.458 319.683 102.458C317.362 102.458 315.034 102.458 312.713 102.458C312.421 102.458 312.129 102.458 311.844 102.498C311.732 102.514 311.612 102.595 311.582 102.748C311.56 102.877 311.53 103.005 311.522 103.142C311.515 103.545 311.522 103.948 311.522 104.351C311.522 112.204 311.522 120.066 311.522 127.919C311.522 128.362 311.507 128.813 311.485 129.256C311.485 129.409 311.305 129.594 311.163 129.619C311.043 129.635 310.916 129.659 310.796 129.659C308.887 129.659 306.978 129.659 305.069 129.659C304.949 129.659 304.814 129.643 304.702 129.603C304.589 129.562 304.477 129.482 304.462 129.337C304.44 129.16 304.425 128.982 304.417 128.805C304.417 128 304.417 127.194 304.417 126.397C304.417 118.986 304.417 111.576 304.417 104.165C304.417 103.722 304.402 103.271 304.38 102.828C304.38 102.659 304.208 102.498 304.05 102.49C303.676 102.474 303.302 102.466 302.927 102.466C300.606 102.466 298.278 102.466 295.957 102.466C295.71 102.466 295.463 102.434 295.216 102.417C295.074 102.401 294.999 102.28 294.961 102.16C294.924 102.039 294.924 101.894 294.924 101.765C294.924 100.114 294.924 98.4625 294.924 96.8112C294.924 96.6743 294.939 96.5454 294.954 96.4085C294.969 96.2393 295.118 96.0621 295.268 96.0621C295.643 96.046 296.017 96.0299 296.384 96.0299C300.284 96.0299 304.185 96.0299 308.086 96.0299H308.093Z" fill="#F7A606"/>
<path d="M191.29 23.3913C191.26 20.1452 191.238 17.1971 191.2 14.249C191.185 13.3147 191.118 12.3803 191.081 11.4379C191.081 11.309 191.081 11.164 191.14 11.0512C191.185 10.9465 191.283 10.8257 191.388 10.7854C191.537 10.7291 191.717 10.729 191.882 10.729C196.321 10.729 200.761 10.729 205.208 10.729C205.373 10.729 205.545 10.721 205.702 10.7693C205.8 10.8015 205.882 10.9304 205.95 11.0351C205.987 11.0996 205.994 11.2043 205.994 11.2929C205.957 12.5897 205.912 13.8785 205.867 15.1753C205.867 15.3042 205.845 15.4492 205.785 15.562C205.725 15.6667 205.613 15.7875 205.515 15.8036C205.231 15.8519 204.939 15.8519 204.647 15.86C202.902 15.86 201.158 15.86 199.413 15.86C199.121 15.86 198.83 15.868 198.545 15.8842C198.343 15.8842 198.178 16.0855 198.171 16.3272C198.163 16.5044 198.156 16.6816 198.156 16.8588C198.156 17.7529 198.156 18.647 198.156 19.5411C198.156 19.678 198.171 19.8069 198.186 19.9438C198.201 20.121 198.35 20.2982 198.5 20.2982C199.166 20.2982 199.825 20.2902 200.492 20.274C201.862 20.2418 203.232 20.2016 204.602 20.1693C204.767 20.1693 204.931 20.1935 205.096 20.2177C205.223 20.2338 205.396 20.4593 205.403 20.5962C205.41 20.7332 205.425 20.862 205.418 20.999C205.388 21.5306 205.358 22.0703 205.321 22.6019C205.276 23.3107 205.231 24.0276 205.178 24.7364C205.163 24.962 204.976 25.1714 204.782 25.1794C204.452 25.1956 204.123 25.2117 203.786 25.2117C202.169 25.2117 200.551 25.2117 198.927 25.2117C198.762 25.2117 198.59 25.2197 198.433 25.26C198.365 25.2761 198.298 25.3647 198.246 25.4291C198.223 25.4614 198.223 25.5178 198.223 25.558C198.096 27.4831 198.163 29.8754 198.358 29.9076C199.593 30.1332 200.828 29.9801 202.071 29.9721C203.105 29.964 204.145 29.8754 205.178 29.8271C205.508 29.811 205.845 29.811 206.174 29.811C206.421 29.811 206.631 30.0607 206.608 30.3587C206.526 31.8247 206.429 33.2987 206.339 34.7647C206.339 34.8533 206.301 34.9339 206.279 35.0225C206.249 35.1594 206.047 35.3608 205.935 35.3688C205.643 35.3849 205.358 35.4011 205.066 35.4011C203.367 35.4011 201.66 35.3769 199.96 35.3849C197.347 35.4011 194.734 35.4333 192.114 35.4574C191.253 35.4574 191.2 35.4091 191.208 34.4828C191.238 30.689 191.275 26.8951 191.305 23.3993L191.29 23.3913Z" fill="#F7A503"/>
<path d="M210.202 23.939C210.18 20.564 210.18 18.059 210.142 15.562C210.127 14.4021 210.052 13.2422 210.007 12.0823C210 11.8165 209.985 11.5507 209.985 11.2768C209.985 10.9868 210.18 10.7532 210.427 10.7371C210.591 10.7291 210.756 10.721 210.921 10.721C215.278 10.721 219.635 10.721 223.993 10.721C224.876 10.721 224.906 10.7613 224.884 11.6956C224.854 12.7186 224.816 13.7496 224.771 14.7726C224.757 15.0384 224.719 15.3042 224.644 15.5539C224.614 15.6586 224.487 15.7795 224.39 15.7956C224.105 15.8358 223.813 15.8439 223.521 15.8439C221.822 15.8439 220.122 15.8439 218.415 15.8439C218.086 15.8439 217.749 15.8519 217.419 15.8681C217.262 15.8681 217.097 16.0372 217.082 16.1983C217.067 16.3272 217.045 16.4641 217.045 16.593C217.045 17.5757 217.045 18.5584 217.045 19.5411C217.045 19.6699 217.067 19.8069 217.082 19.9358C217.097 20.0969 217.262 20.266 217.419 20.266C217.996 20.266 218.58 20.2579 219.156 20.2418C220.609 20.2096 222.061 20.1613 223.514 20.1291C223.678 20.1291 223.851 20.1291 224 20.1935C224.105 20.2338 224.187 20.3546 224.247 20.4593C224.292 20.5238 224.3 20.6285 224.3 20.7171C224.225 22.0542 224.143 23.3913 224.06 24.7203C224.045 24.9298 223.843 25.1472 223.648 25.1553C223.319 25.1714 222.982 25.1795 222.653 25.1795C221.073 25.1795 219.501 25.1795 217.921 25.1795C217.719 25.1795 217.509 25.1956 217.307 25.2358C217.24 25.252 217.187 25.3486 217.142 25.4131C217.12 25.4453 217.12 25.5017 217.12 25.5419C217.12 26.879 217.112 28.2161 217.112 29.5532C217.112 29.8029 217.262 29.9479 217.502 29.964C217.547 29.964 217.584 29.9721 217.629 29.9721C219.291 29.9318 220.946 29.8996 222.608 29.8513C223.439 29.8271 224.262 29.7949 225.093 29.7707C225.273 29.7707 225.498 30.0204 225.505 30.1976C225.505 30.246 225.505 30.2862 225.505 30.3346C225.438 31.5347 225.37 32.743 225.288 33.9431C225.266 34.2976 225.198 34.652 225.146 34.9983C225.123 35.1353 224.921 35.3125 224.786 35.3205C224.539 35.3366 224.292 35.3527 224.038 35.3527C222.915 35.3527 221.799 35.3366 220.676 35.3527C217.607 35.3688 214.537 35.393 211.467 35.4091C211.303 35.4091 211.138 35.4091 210.973 35.4172C210.135 35.4413 210.082 35.3205 210.097 34.4103C210.097 34.3217 210.097 34.2331 210.097 34.1445C210.127 30.4393 210.157 26.734 210.187 23.9068L210.202 23.939Z" fill="#F7A503"/>
<path d="M229.084 23.061C229.084 21.0957 229.084 19.1303 229.084 17.1649C229.084 15.6023 229.054 14.0396 228.927 12.485C228.889 12.042 228.912 11.5909 228.912 11.1479C228.912 10.9868 229.077 10.7935 229.219 10.7774C229.421 10.7613 229.631 10.7371 229.84 10.7371C234.198 10.7371 238.555 10.7371 242.912 10.7371C243.122 10.7371 243.332 10.7371 243.526 10.7855C243.624 10.8096 243.706 10.9385 243.766 11.0432C243.803 11.1076 243.803 11.2124 243.803 11.301C243.796 12.6864 243.721 14.0638 243.586 15.4412C243.564 15.6667 243.399 15.8197 243.16 15.8358C242.83 15.852 242.493 15.852 242.164 15.852C240.382 15.852 238.593 15.852 236.811 15.852C236.601 15.852 236.391 15.852 236.197 15.9083C236.099 15.9325 236.017 16.0694 235.957 16.1741C235.92 16.2466 235.912 16.3433 235.912 16.4319C235.912 17.5515 235.912 18.6631 235.912 19.7827C235.912 19.823 235.927 19.8713 235.935 19.9116C235.957 20.113 236.144 20.2902 236.376 20.2902C237.08 20.2821 237.784 20.266 238.495 20.2499C239.783 20.2177 241.071 20.1774 242.351 20.1452C242.516 20.1452 242.68 20.1613 242.845 20.1774C242.972 20.1855 243.167 20.3868 243.182 20.5238C243.197 20.6526 243.219 20.7896 243.212 20.9185C243.16 21.9414 243.092 22.9644 243.032 23.9954C243.017 24.2209 243.01 24.4384 242.987 24.664C242.957 24.9539 242.755 25.1714 242.508 25.1795C242.179 25.1956 241.842 25.1956 241.512 25.1956C239.978 25.1956 238.443 25.1956 236.908 25.1956C236.698 25.1956 236.489 25.1956 236.287 25.2358C236.182 25.26 236.062 25.3406 236.054 25.5097C236.039 25.9125 236.017 26.3152 236.025 26.7099C236.025 27.6926 236.039 28.6753 236.054 29.658C236.054 29.8271 236.212 29.9802 236.376 29.9882C236.668 29.9963 236.96 30.0124 237.245 30.0043C238.907 29.9963 240.562 29.9882 242.224 29.8432C242.635 29.811 243.055 29.811 243.466 29.7949C244.283 29.7546 244.417 29.8916 244.357 30.7695C244.268 32.1066 244.193 33.4437 244.095 34.7728C244.065 35.2319 243.901 35.3688 243.437 35.3769C243.107 35.385 242.77 35.3769 242.441 35.3769C238.293 35.393 234.138 35.4172 229.99 35.4333C229.78 35.4333 229.578 35.4333 229.369 35.4252C229.181 35.4172 229.002 35.1997 228.994 34.9661C228.994 34.8775 228.987 34.7889 228.994 34.7003C229.047 30.8179 229.099 26.9354 229.152 23.053C229.129 23.053 229.107 23.053 229.092 23.053L229.084 23.061Z" fill="#F7A503"/>
<path d="M253.364 112.736C253.364 107.693 253.364 102.643 253.364 97.6006C253.364 97.1979 253.379 96.7951 253.401 96.4004C253.401 96.2313 253.566 96.0702 253.723 96.0541C253.761 96.0541 253.805 96.038 253.843 96.038C255.879 96.038 257.908 96.038 259.945 96.038C260.027 96.038 260.124 96.038 260.184 96.0863C260.282 96.1588 260.386 96.2554 260.416 96.3602C260.461 96.5293 260.461 96.7146 260.469 96.8918C260.469 97.6973 260.469 98.5027 260.469 99.3002C260.469 108.853 260.469 118.406 260.469 127.959C260.469 128.402 260.454 128.853 260.439 129.296C260.439 129.466 260.274 129.635 260.117 129.651C259.997 129.667 259.87 129.683 259.743 129.683C257.878 129.683 256.007 129.683 254.142 129.683C253.978 129.683 253.805 129.675 253.656 129.619C253.558 129.578 253.439 129.458 253.424 129.345C253.379 129.087 253.364 128.813 253.364 128.547C253.364 127.033 253.364 125.511 253.364 123.996C253.364 120.243 253.364 116.497 253.364 112.744V112.736Z" fill="#F7A708"/>
<path d="M186.162 21.7964C186.206 25.7353 186.229 28.4497 186.266 31.1723C186.281 32.1066 186.326 33.041 186.356 33.9754C186.364 34.2895 186.371 34.5956 186.371 34.9097C186.371 35.1514 186.199 35.3447 185.997 35.3608C185.914 35.3608 185.832 35.3769 185.75 35.3769C183.721 35.4011 181.684 35.4172 179.655 35.4333C179.536 35.4333 179.401 35.4333 179.296 35.3769C179.199 35.3286 179.079 35.2078 179.064 35.1111C179.019 34.8533 179.019 34.5795 179.027 34.3137C179.049 30.4312 179.049 26.5568 179.154 22.6744C179.214 20.6688 179.154 18.6631 179.116 16.6574C179.094 15.0062 179.034 13.355 178.997 11.7118C178.997 11.4943 178.997 11.2607 179.042 11.0513C179.064 10.9466 179.184 10.8257 179.281 10.7935C179.431 10.7371 179.611 10.7452 179.775 10.7452C181.722 10.7291 183.668 10.713 185.622 10.6969C185.75 10.6969 185.885 10.6807 185.989 10.7291C186.087 10.7774 186.221 10.8902 186.229 10.9788C186.259 11.3735 186.259 11.7762 186.259 12.1789C186.221 15.7875 186.184 19.4041 186.162 21.7964Z" fill="#F7A504"/>
<path d="M32.8449 146.751C33.4663 146.671 34.1251 146.695 34.7915 146.743C34.9412 146.751 35.0984 146.929 35.1059 147.098C35.1209 147.323 35.1359 147.541 35.1359 147.766C35.1509 152.631 35.1583 157.496 35.1658 162.362C35.1658 162.45 35.1658 162.539 35.1658 162.627C35.1733 163.248 34.9936 163.328 34.507 163.336C33.923 163.336 33.3465 163.328 32.7625 163.312C32.5978 163.312 32.4331 163.151 32.4256 162.99C32.4106 162.587 32.3957 162.184 32.3957 161.79C32.3957 159.293 32.3957 156.788 32.3957 154.291C32.3957 153.936 32.3807 153.574 32.3507 153.219C32.3507 153.155 32.2459 153.09 32.1786 153.05C32.1561 153.034 32.0887 153.066 32.0663 153.099C31.8941 153.34 31.7069 153.582 31.5571 153.84C30.4341 155.869 29.3186 157.907 28.1955 159.937C27.9634 160.356 27.7164 160.775 27.4768 161.194C27.3795 161.363 27.2297 161.427 27.065 161.443C26.9452 161.459 26.8179 161.451 26.6907 161.468C26.234 161.516 25.912 161.339 25.6724 160.896C24.8938 159.478 24.0852 158.068 23.2841 156.659C22.6103 155.483 21.9365 154.307 21.2627 153.131C21.2103 153.034 21.1429 153.01 21.053 153.074C21.0231 153.09 21.0006 153.139 20.9931 153.171C20.9782 153.437 20.9707 153.703 20.9632 153.968C20.9632 155.483 20.9632 157.005 20.9632 158.519C20.9632 159.728 20.9632 160.928 20.9632 162.136C20.9632 162.402 20.9482 162.668 20.9407 162.942C20.9407 163.111 20.7835 163.296 20.6263 163.296C19.9225 163.296 19.2187 163.296 18.515 163.296C18.3727 163.296 18.2754 163.167 18.2529 163.054C18.208 162.837 18.208 162.611 18.208 162.386C18.208 157.472 18.208 152.567 18.208 147.653C18.208 147.476 18.2155 147.299 18.2305 147.122C18.2454 146.896 18.4102 146.727 18.6422 146.719C19.1364 146.711 19.638 146.719 20.1321 146.703C20.4017 146.703 20.6113 146.824 20.7461 147.073C21.4723 148.37 22.206 149.667 22.9248 150.972C23.9729 152.849 25.0136 154.726 26.0543 156.602C26.1815 156.828 26.3163 157.053 26.4586 157.279C26.5559 157.44 26.788 157.456 26.8703 157.311C27.1174 156.9 27.3645 156.49 27.5966 156.063C29.094 153.332 30.5838 150.602 32.0812 147.871C32.2909 147.492 32.4481 147.065 32.8224 146.751H32.8449Z" fill="#F7A707"/>
<path d="M245.226 154.573C245.256 154.677 245.263 154.798 245.316 154.838C245.585 155.04 245.885 155.209 246.147 155.418C246.963 156.055 247.449 156.908 247.562 157.988C247.607 158.431 247.622 158.882 247.599 159.325C247.524 160.743 246.85 161.757 245.735 162.458C244.971 162.942 244.125 163.175 243.257 163.28C242.8 163.336 242.343 163.344 241.887 163.352C239.521 163.352 237.155 163.352 234.782 163.352C234.579 163.352 234.37 163.32 234.168 163.296C234.025 163.28 233.958 163.143 233.928 163.022C233.891 162.853 233.891 162.668 233.891 162.49C233.891 157.529 233.891 152.567 233.891 147.613C233.891 147.436 233.913 147.259 233.928 147.082C233.943 146.92 234.108 146.767 234.272 146.751C234.4 146.743 234.52 146.727 234.647 146.727C236.893 146.727 239.131 146.719 241.378 146.727C242.291 146.727 243.197 146.896 244.073 147.194C244.634 147.388 245.143 147.678 245.593 148.088C246.364 148.781 246.798 149.667 246.835 150.755C246.865 151.616 246.82 152.462 246.364 153.203C246.184 153.501 245.974 153.775 245.75 154.041C245.585 154.242 245.39 154.411 245.218 154.581L245.226 154.573ZM239.708 160.896C239.708 160.896 239.708 160.896 239.708 160.888C240.539 160.888 241.363 160.888 242.194 160.888C242.658 160.888 243.1 160.759 243.519 160.565C244.327 160.203 244.754 159.534 244.762 158.6C244.769 157.666 244.402 156.965 243.594 156.578C243.369 156.474 243.129 156.369 242.89 156.329C242.441 156.24 241.991 156.151 241.535 156.143C240.127 156.119 238.72 156.135 237.312 156.143C237.013 156.143 236.825 156.329 236.825 156.61C236.825 157.899 236.825 159.196 236.825 160.485C236.825 160.726 236.983 160.896 237.215 160.896C238.046 160.896 238.869 160.896 239.7 160.896H239.708ZM239.364 153.719C239.82 153.719 240.277 153.727 240.734 153.719C241.108 153.711 241.482 153.67 241.849 153.654C242.231 153.638 242.583 153.493 242.912 153.308C243.601 152.929 243.968 152.301 243.968 151.471C243.968 150.658 243.639 149.997 242.927 149.627C242.703 149.514 242.471 149.393 242.231 149.345C241.699 149.24 241.175 149.127 240.629 149.136C239.633 149.152 238.637 149.136 237.642 149.136C237.477 149.136 237.312 149.152 237.147 149.168C237.005 149.184 236.84 149.361 236.84 149.53C236.825 150.022 236.796 150.513 236.825 151.004C236.863 151.842 236.691 152.696 236.938 153.517C236.998 153.711 237.028 153.703 239.371 153.703L239.364 153.719Z" fill="#F7A709"/>
<path d="M368.288 150.722C368.527 151.093 368.378 151.471 368.482 151.802C368.497 151.85 368.625 151.914 368.677 151.898C368.789 151.858 368.894 151.778 368.992 151.689C369.793 150.996 370.729 150.642 371.732 150.537C373.963 150.304 376.291 151.254 377.527 153.598C378.2 154.879 378.425 156.28 378.29 157.73C378.2 158.713 377.976 159.655 377.489 160.517C376.441 162.378 374.869 163.32 372.892 163.513C371.522 163.65 370.257 163.328 369.134 162.442C369.104 162.418 369.066 162.394 369.029 162.362C368.924 162.289 368.797 162.209 368.7 162.313C368.625 162.394 368.595 162.539 368.587 162.668C368.572 162.982 368.572 163.288 368.572 163.602C368.572 164.673 368.572 165.745 368.572 166.816C368.572 167.082 368.55 167.348 368.535 167.613C368.527 167.758 368.348 167.936 368.198 167.952C368.116 167.96 368.033 167.976 367.951 167.984C367.741 167.984 367.539 167.984 367.33 167.984C365.66 167.984 365.78 168.145 365.78 166.333C365.78 161.645 365.78 156.965 365.78 152.277C365.78 151.874 365.787 151.471 365.802 151.077C365.802 150.883 365.937 150.706 366.087 150.698C366.828 150.65 367.569 150.634 368.28 150.698L368.288 150.722ZM375.49 157.126C375.453 156.667 375.453 156.345 375.393 156.047C375.146 154.79 374.494 153.872 373.379 153.356C372.87 153.123 372.338 153.058 371.799 153.09C370.541 153.163 369.568 153.775 368.977 154.959C368.363 156.208 368.318 157.537 368.864 158.826C369.448 160.211 370.481 160.928 371.897 160.976C373.716 161.041 374.839 159.905 375.288 158.423C375.43 157.964 375.438 157.464 375.49 157.126Z" fill="#F7A708"/>
<path d="M185.765 154.589C185.765 157.045 185.765 159.502 185.765 161.951C185.765 162.305 185.765 162.668 185.72 163.022C185.712 163.119 185.578 163.272 185.488 163.28C184.784 163.368 184.08 163.377 183.384 163.28C183.316 163.272 183.227 163.183 183.212 163.119C183.144 162.869 183.107 162.603 183.054 162.346C183.032 162.249 182.83 162.176 182.747 162.233C182.575 162.362 182.411 162.49 182.238 162.619C181.43 163.215 180.516 163.481 179.551 163.538C178.712 163.594 177.888 163.481 177.102 163.175C174.909 162.321 173.658 160.614 173.321 158.149C173.179 157.086 173.202 156.014 173.501 154.967C174.19 152.575 175.672 151.133 177.963 150.65C178.577 150.521 179.191 150.448 179.82 150.537C180.786 150.674 181.677 150.98 182.455 151.633C182.553 151.713 182.658 151.794 182.777 151.834C182.822 151.85 182.95 151.769 182.957 151.713C182.987 151.544 182.995 151.359 182.995 151.181C182.995 149.885 182.995 148.596 182.995 147.299C182.995 146.945 182.995 146.582 183.01 146.228C183.017 145.922 183.174 145.769 183.489 145.753C183.698 145.736 183.9 145.736 184.11 145.736C186.034 145.761 185.757 145.479 185.772 147.5C185.787 149.869 185.772 152.229 185.772 154.597L185.765 154.589ZM183.017 157.053C183.017 156.989 183.032 156.772 183.017 156.546C182.92 154.943 181.976 153.638 180.546 153.219C179.079 152.784 177.611 153.244 176.698 154.645C176.129 155.531 175.934 156.53 176.069 157.577C176.286 159.277 177.26 160.791 179.221 160.968C180.561 161.089 181.669 160.598 182.433 159.357C182.83 158.713 183.047 157.996 183.017 157.045V157.053Z" fill="#F7A606"/>
<path d="M145.703 150.287C145.478 150.191 145.283 150.126 145.104 150.03C144.317 149.603 143.479 149.353 142.625 149.184C141.675 149.007 140.731 149.023 139.788 149.313C139.466 149.417 139.167 149.562 138.889 149.764C138.612 149.965 138.41 150.247 138.268 150.585C138.021 151.19 138.036 152.067 138.732 152.623C139.174 152.978 139.668 153.195 140.192 153.348C140.874 153.542 141.562 153.703 142.244 153.896C142.805 154.057 143.359 154.226 143.913 154.411C144.467 154.597 144.999 154.854 145.493 155.185C146.885 156.095 147.432 157.464 147.245 159.164C147.08 160.678 146.354 161.83 145.119 162.595C144.243 163.143 143.299 163.473 142.289 163.53C141.42 163.578 140.544 163.594 139.676 163.521C138.216 163.393 136.838 162.917 135.565 162.112C135.49 162.064 135.431 162.007 135.356 161.959C135.041 161.733 134.966 161.524 135.101 161.178C135.311 160.646 135.528 160.114 135.76 159.591C135.79 159.518 135.872 159.47 135.97 159.373C136.044 159.397 136.164 159.422 136.262 159.478C136.703 159.728 137.123 160.018 137.579 160.227C139.137 160.968 140.761 161.178 142.446 160.879C142.947 160.791 143.404 160.59 143.801 160.251C144.325 159.8 144.55 159.011 144.317 158.318C144.235 158.076 144.07 157.851 143.898 157.674C143.629 157.392 143.299 157.19 142.94 157.07C142.423 156.9 141.914 156.715 141.39 156.578C140.462 156.337 139.533 156.119 138.627 155.789C138.081 155.587 137.549 155.338 137.048 155.016C135.73 154.178 135.183 152.889 135.251 151.302C135.318 149.675 136.029 148.419 137.325 147.549C137.894 147.17 138.515 146.888 139.159 146.751C141.502 146.244 143.778 146.461 145.965 147.565C146.114 147.637 146.272 147.718 146.391 147.839C146.474 147.919 146.571 148.088 146.541 148.177C146.302 148.886 146.092 149.603 145.703 150.295V150.287Z" fill="#F7A607"/>
<path d="M300.037 154.573C300.037 152.116 300.037 149.667 300.037 147.21C300.037 146.856 300.045 146.494 300.06 146.139C300.06 145.954 300.209 145.769 300.352 145.769C301.055 145.769 301.759 145.769 302.463 145.769C302.62 145.769 302.785 145.946 302.792 146.115C302.807 146.381 302.815 146.647 302.815 146.912C302.815 148.25 302.815 149.587 302.815 150.932C302.815 151.149 302.845 151.375 302.867 151.592C302.875 151.697 303.069 151.769 303.167 151.705C303.414 151.544 303.653 151.359 303.908 151.222C305.465 150.368 307.075 150.271 308.729 150.883C310.04 151.375 310.863 152.374 311.32 153.751C311.485 154.25 311.604 154.774 311.604 155.322C311.604 155.724 311.619 156.127 311.619 156.53C311.619 158.318 311.619 160.098 311.619 161.886C311.619 162.241 311.604 162.603 311.597 162.958C311.597 163.135 311.44 163.312 311.297 163.312C310.594 163.312 309.89 163.312 309.186 163.312C309.036 163.312 308.887 163.127 308.879 162.958C308.872 162.555 308.857 162.152 308.857 161.757C308.857 160.018 308.857 158.278 308.857 156.538C308.857 155.958 308.819 155.386 308.602 154.83C308.295 154.041 307.779 153.542 307 153.292C306.109 153.01 305.27 153.139 304.462 153.542C303.519 154.017 303.032 154.871 302.882 155.95C302.822 156.385 302.815 156.836 302.815 157.287C302.815 158.938 302.815 160.59 302.815 162.241C302.815 162.507 302.815 162.78 302.777 163.038C302.762 163.151 302.672 163.28 302.53 163.296C301.789 163.385 301.048 163.385 300.307 163.296C300.164 163.28 300.09 163.143 300.082 163.014C300.052 162.66 300.052 162.305 300.052 161.943C300.052 159.486 300.052 157.037 300.052 154.581L300.037 154.573Z" fill="#F7A607"/>
<path d="M340.04 151.753C340.159 151.778 340.257 151.826 340.309 151.794C340.526 151.665 340.728 151.504 340.938 151.367C342.129 150.618 343.409 150.352 344.764 150.561C345.168 150.626 345.58 150.722 345.969 150.867C347.422 151.407 348.29 152.551 348.68 154.105C348.829 154.701 348.904 155.338 348.912 155.958C348.934 158.189 348.919 160.42 348.919 162.652C348.919 162.7 348.919 162.74 348.919 162.789C348.904 163.119 348.754 163.312 348.477 163.312C347.811 163.312 347.152 163.312 346.486 163.312C346.359 163.312 346.149 163.111 346.149 162.982C346.134 162.627 346.119 162.265 346.119 161.911C346.119 160.259 346.119 158.608 346.119 156.957C346.119 156.425 346.097 155.877 346.014 155.354C345.842 154.307 345.295 153.59 344.307 153.276C343.371 152.978 342.503 153.131 341.657 153.566C340.938 153.936 340.511 154.581 340.279 155.378C340.115 155.934 340.047 156.506 340.047 157.094C340.055 158.656 340.047 160.219 340.047 161.782C340.047 162.136 340.047 162.499 340.032 162.853C340.032 163.127 339.89 163.304 339.673 163.304C339.006 163.312 338.348 163.312 337.681 163.304C337.464 163.304 337.314 163.111 337.307 162.861C337.299 162.547 337.292 162.233 337.292 161.927C337.292 156.973 337.292 152.019 337.292 147.057C337.292 146.703 337.314 146.349 337.352 145.994C337.352 145.93 337.449 145.865 337.509 145.809C337.539 145.785 337.584 145.761 337.621 145.761C338.363 145.712 339.104 145.632 339.845 145.801C339.882 145.809 339.92 145.841 339.98 145.889C340.107 146.84 340.025 147.823 340.04 148.805C340.055 149.788 340.04 150.763 340.04 151.737V151.753Z" fill="#F7A607"/>
<path d="M334.701 149.256C334.634 149.377 334.589 149.514 334.499 149.595C333.998 150.054 333.593 150.642 333.009 150.988C332.979 151.004 332.935 151.004 332.852 151.012C332.68 150.867 332.485 150.706 332.291 150.537C331.25 149.627 330.052 149.216 328.712 149.256C328.046 149.272 327.394 149.353 326.758 149.595C324.676 150.392 323.389 152.478 323.299 154.677C323.247 156.006 323.494 157.247 324.19 158.366C325.133 159.873 326.481 160.654 328.135 160.847C329.738 161.033 331.175 160.581 332.41 159.454C332.508 159.365 332.598 159.277 332.695 159.188C332.762 159.132 332.83 159.091 332.905 159.043C332.979 159.067 333.077 159.075 333.129 159.132C333.616 159.615 334.103 160.098 334.582 160.59C334.709 160.718 334.694 160.912 334.574 161.065C333.84 161.951 332.942 162.571 331.924 162.99C331.07 163.336 330.187 163.562 329.258 163.578C328.218 163.594 327.185 163.594 326.174 163.272C323.426 162.394 321.569 160.525 320.716 157.569C320.244 155.91 320.237 154.226 320.708 152.559C321.397 150.11 322.842 148.338 325.006 147.315C327.304 146.228 329.67 146.212 332.029 147.17C332.972 147.549 333.796 148.145 334.492 148.934C334.574 149.023 334.627 149.152 334.701 149.264V149.256Z" fill="#F7A707"/>
<path d="M199.683 161.468C199.503 161.677 199.383 161.854 199.234 161.999C198.335 162.861 197.25 163.296 196.089 163.465C194.712 163.675 193.349 163.554 192.061 162.974C190.317 162.184 189.111 160.839 188.64 158.842C188.288 157.335 188.318 155.829 188.894 154.379C189.718 152.293 191.2 151.077 193.267 150.634C194.442 150.384 195.58 150.473 196.688 150.908C198.934 151.794 200.132 153.59 200.424 156.103C200.484 156.627 200.424 157.166 200.409 157.706C200.409 157.77 200.312 157.883 200.252 157.891C200.005 157.931 199.758 157.956 199.511 157.956C197.227 157.956 194.951 157.956 192.668 157.956C192.293 157.956 191.919 157.956 191.552 157.972C191.372 157.972 191.245 158.157 191.29 158.326C191.672 159.752 192.585 160.573 193.903 160.871C194.345 160.968 194.809 161.008 195.258 160.992C196.142 160.96 196.973 160.702 197.684 160.098C197.811 159.993 197.953 159.889 198.103 159.816C198.163 159.784 198.283 159.816 198.335 159.857C198.844 160.324 199.234 160.896 199.675 161.459L199.683 161.468ZM197.646 155.934C197.661 155.894 197.684 155.853 197.691 155.813C197.706 155.724 197.736 155.636 197.721 155.555C197.482 154.307 196.748 153.509 195.655 153.131C195.071 152.929 194.45 152.889 193.821 153.026C192.466 153.316 191.605 154.138 191.268 155.571C191.245 155.684 191.305 155.821 191.32 155.934C192.368 156.047 196.748 156.039 197.646 155.934Z" fill="#F7A607"/>
<path d="M398.655 159.768C398.774 159.84 398.902 159.881 398.977 159.969C399.313 160.364 399.635 160.767 399.957 161.178C400.145 161.411 400.107 161.637 399.875 161.87C398.864 162.893 397.621 163.36 396.274 163.505C395.323 163.61 394.365 163.562 393.429 163.28C391.415 162.684 389.955 161.411 389.251 159.26C388.72 157.641 388.757 155.998 389.371 154.411C390.179 152.325 391.662 151.085 393.728 150.634C394.904 150.384 396.042 150.448 397.157 150.883C399.156 151.657 400.354 153.203 400.818 155.41C400.961 156.111 401.065 156.812 400.968 157.537C400.946 157.706 400.803 157.891 400.661 157.899C400.332 157.915 400.002 157.939 399.665 157.939C397.337 157.939 395.016 157.939 392.688 157.939C392.441 157.939 392.193 157.964 391.946 158.004C391.894 158.012 391.834 158.133 391.819 158.213C391.797 158.294 391.812 158.399 391.834 158.479C392.201 159.744 393.047 160.485 394.192 160.823C395.046 161.073 395.929 161.073 396.783 160.823C397.18 160.71 397.547 160.485 397.913 160.283C398.168 160.138 398.393 159.937 398.64 159.752L398.655 159.768ZM398.22 155.934C398.235 155.813 398.288 155.676 398.258 155.563C398.175 155.265 398.086 154.967 397.943 154.701C397.479 153.791 396.753 153.268 395.81 153.042C395.181 152.897 394.574 152.929 393.975 153.107C392.86 153.445 392.111 154.21 391.812 155.434C391.767 155.612 391.782 155.781 391.901 155.934C392.875 156.039 397.255 156.039 398.22 155.934Z" fill="#F7A607"/>
<path d="M38.6101 152.212C38.6924 152.084 38.7448 151.939 38.8422 151.882C39.239 151.641 39.6283 151.375 40.0476 151.198C41.792 150.465 43.5963 150.263 45.4231 150.722C46.9729 151.117 48.1259 152.067 48.6126 153.775C48.8072 154.46 48.8971 155.169 48.8896 155.885C48.8746 157.36 48.8896 158.834 48.8896 160.308C48.8896 161.065 48.8896 161.83 48.8896 162.587C48.8896 162.724 48.8746 162.853 48.8671 162.99C48.8521 163.143 48.6874 163.312 48.5227 163.312C47.9837 163.328 47.4446 163.336 46.9056 163.336C46.3066 163.336 46.2467 163.207 46.2317 162.644C46.2317 162.595 46.2317 162.555 46.2168 162.507C46.1868 162.362 46.0371 162.265 45.9547 162.329C45.8574 162.41 45.7526 162.482 45.6552 162.571C45.0263 163.127 44.2702 163.377 43.484 163.489C42.5706 163.618 41.6572 163.578 40.7738 163.264C39.6582 162.869 38.7898 162.176 38.363 160.936C37.7865 159.26 38.4304 157.4 39.9053 156.602C40.4968 156.28 41.1332 156.055 41.807 156.03C42.7204 155.998 43.6338 155.99 44.5472 155.974C44.959 155.974 45.3782 155.958 45.79 155.942C45.9847 155.942 46.1419 155.692 46.1194 155.459C45.9847 153.96 45.1012 153.235 43.9707 153.09C42.668 152.921 41.4027 153.099 40.2422 153.823C40.1 153.912 39.9577 154.033 39.808 154.073C39.7107 154.097 39.531 154.057 39.486 153.976C39.2989 153.687 39.1416 153.364 38.9919 153.05C38.8571 152.776 38.7448 152.486 38.6176 152.204L38.6101 152.212ZM44.3376 157.948C44.3376 157.948 44.3376 157.939 44.3376 157.931C43.8434 157.931 43.3493 157.931 42.8551 157.931C42.4733 157.931 42.1214 158.052 41.7695 158.189C41.53 158.286 41.3428 158.455 41.1931 158.672C40.7139 159.381 40.7738 160.509 41.7471 161.049C42.8701 161.669 44.5247 161.403 45.4531 160.461C45.9248 159.985 46.2317 159.43 46.1494 158.697C46.1344 158.568 46.1419 158.431 46.1344 158.302C46.1269 158.117 45.9922 157.964 45.8274 157.956C45.3333 157.956 44.8392 157.956 44.345 157.956L44.3376 157.948Z" fill="#F7A607"/>
<path d="M84.22 163.554C82.3707 163.513 80.7685 162.917 79.4958 161.467C78.2829 160.09 77.8037 158.423 77.9085 156.562C77.9535 155.716 78.1182 154.887 78.485 154.113C79.3011 152.374 80.5963 151.27 82.3108 150.755C83.7408 150.328 85.1783 150.392 86.5858 150.932C88.5175 151.673 90.3742 153.566 90.4865 156.731C90.5165 157.633 90.4117 158.511 90.1197 159.357C89.4159 161.387 88.0383 162.627 86.1441 163.256C85.8297 163.36 85.5002 163.433 85.1708 163.481C84.8414 163.53 84.512 163.53 84.2125 163.546L84.22 163.554ZM84.2424 153.074C82.3557 153.01 80.7985 154.564 80.7461 156.627C80.7386 157.029 80.7461 157.432 80.7835 157.827C80.9033 159.107 81.914 160.807 83.7333 160.944C84.1002 160.968 84.482 160.96 84.8489 160.912C85.7174 160.807 86.4361 160.372 86.9302 159.599C87.8886 158.109 87.956 156.498 87.2073 154.911C86.6083 153.654 85.5377 153.107 84.2424 153.074Z" fill="#F7A708"/>
<path d="M117.14 154.113C117.102 154.089 117.05 154.081 117.035 154.049C116.818 153.67 116.601 153.292 116.406 152.905C116.286 152.672 116.204 152.422 116.092 152.156C116.226 152.019 116.324 151.866 116.458 151.778C117.394 151.165 118.405 150.811 119.491 150.634C120.531 150.465 121.549 150.44 122.59 150.65C123.047 150.746 123.474 150.883 123.893 151.085C125.106 151.673 125.877 152.672 126.184 154.065C126.311 154.629 126.401 155.201 126.394 155.789C126.394 158.068 126.394 160.348 126.394 162.627C126.394 162.764 126.394 162.901 126.356 163.022C126.319 163.143 126.251 163.28 126.102 163.28C125.443 163.296 124.776 163.304 124.117 163.304C123.9 163.304 123.796 163.167 123.751 162.869C123.728 162.692 123.706 162.515 123.683 162.305C123.548 162.345 123.414 162.354 123.339 162.418C122.717 162.99 121.999 163.304 121.205 163.449C120.164 163.634 119.131 163.586 118.128 163.207C117.537 162.982 117.012 162.635 116.556 162.16C115.208 160.743 115.313 157.625 117.424 156.578C118.031 156.28 118.66 156.039 119.333 156.022C120.284 155.99 121.243 155.99 122.201 155.966C122.575 155.966 122.95 155.95 123.324 155.934C123.459 155.934 123.631 155.708 123.623 155.555C123.534 154.081 122.785 153.3 121.572 153.099C120.314 152.889 119.086 153.066 117.941 153.695C117.686 153.832 117.469 154.057 117.17 154.089L117.14 154.113ZM123.623 158.656C123.623 158.56 123.623 158.471 123.623 158.383C123.616 158.125 123.474 157.948 123.257 157.948C122.268 157.948 121.272 157.948 120.284 157.939C119.902 157.939 119.55 158.06 119.206 158.213C118.847 158.366 118.592 158.672 118.472 159.067C118.218 159.905 118.532 160.735 119.266 161.073C120.561 161.669 121.774 161.427 122.867 160.517C123.414 160.066 123.728 159.438 123.623 158.664V158.656Z" fill="#F7A708"/>
<path d="M265.979 162.289C265.837 162.345 265.71 162.362 265.62 162.434C264.063 163.731 262.326 163.755 260.529 163.24C260.14 163.127 259.758 162.909 259.413 162.66C258.5 161.991 257.976 161.065 257.983 159.848C257.983 159.446 258.006 159.035 258.096 158.656C258.305 157.803 258.785 157.134 259.511 156.707C260.177 156.312 260.881 156.055 261.637 156.031C262.588 155.998 263.546 155.998 264.505 155.982C264.879 155.982 265.253 155.966 265.628 155.95C265.77 155.95 265.92 155.716 265.912 155.555C265.83 154.146 265.066 153.268 263.718 153.099C262.453 152.945 261.233 153.115 260.102 153.791C259.893 153.92 259.698 154.122 259.376 154.105C258.979 153.574 258.702 152.929 258.455 152.277C258.403 152.14 258.485 152.003 258.582 151.931C258.897 151.713 259.204 151.48 259.548 151.326C261.398 150.473 263.314 150.263 265.276 150.738C265.717 150.843 266.144 151.053 266.541 151.278C267.499 151.834 268.128 152.704 268.428 153.832C268.57 154.387 268.69 154.959 268.69 155.547C268.69 157.956 268.69 160.372 268.69 162.78C268.69 162.869 268.69 162.982 268.652 163.038C268.585 163.135 268.48 163.272 268.383 163.28C267.724 163.304 267.058 163.304 266.399 163.304C266.219 163.304 266.092 163.175 266.062 162.982C266.032 162.764 266.009 162.547 265.972 162.289H265.979ZM264.033 157.923C263.576 157.923 263.127 157.923 262.67 157.923C262.288 157.923 261.937 158.036 261.585 158.173C261.345 158.262 261.158 158.439 260.993 158.64C260.611 159.116 260.537 160.259 261.21 160.799C261.375 160.928 261.555 161.049 261.742 161.129C262.872 161.588 263.943 161.403 264.931 160.71C265.628 160.219 266.024 159.526 265.95 158.576C265.912 158.044 265.845 157.931 265.388 157.923C264.931 157.923 264.482 157.923 264.025 157.923H264.033Z" fill="#F7A708"/>
<path d="M353.015 154.202C352.55 153.517 352.296 152.865 352.004 152.301C352.034 152.027 352.154 151.914 352.296 151.818C352.962 151.351 353.688 151.053 354.459 150.835C355.889 150.44 357.319 150.368 358.764 150.714C359.124 150.803 359.476 150.948 359.813 151.109C361.22 151.794 361.946 153.018 362.171 154.629C362.216 154.935 362.231 155.249 362.231 155.563C362.231 157.923 362.231 160.292 362.231 162.652C362.231 162.78 362.231 162.925 362.193 163.046C362.156 163.167 362.074 163.288 361.939 163.296C361.445 163.312 360.943 163.328 360.449 163.336C359.596 163.336 359.715 163.28 359.648 162.523C359.625 162.305 359.461 162.217 359.311 162.329C359.244 162.378 359.169 162.426 359.109 162.482C358.532 163.038 357.829 163.304 357.087 163.441C356.054 163.626 355.021 163.586 354.018 163.215C353.509 163.03 353.037 162.74 352.625 162.354C350.911 160.718 351.27 157.633 353.269 156.594C353.868 156.28 354.497 156.047 355.171 156.022C356.002 155.99 356.825 155.982 357.656 155.966C358.151 155.958 358.652 155.95 359.146 155.942C359.281 155.942 359.453 155.732 359.461 155.587C359.476 154.283 358.705 153.292 357.469 153.099C356.211 152.905 354.991 153.066 353.838 153.678C353.584 153.815 353.336 153.977 353 154.186L353.015 154.202ZM359.446 158.052C359.304 158.004 359.184 157.939 359.071 157.939C358.121 157.931 357.177 157.939 356.226 157.939C355.889 157.939 355.575 158.028 355.261 158.149C354.654 158.391 354.317 158.874 354.28 159.542C354.235 160.227 354.557 160.751 355.118 161.049C356.511 161.79 358.128 161.242 358.914 160.396C359.304 159.969 359.558 159.478 359.506 158.85C359.483 158.592 359.468 158.326 359.453 158.06L359.446 158.052Z" fill="#F7A606"/>
<path d="M275.016 151.882C275.211 151.914 275.323 151.769 275.45 151.673C277.008 150.465 278.737 150.223 280.541 150.747C282.256 151.246 283.282 152.519 283.663 154.379C283.776 154.943 283.836 155.531 283.836 156.103C283.858 158.294 283.843 160.477 283.836 162.668C283.836 162.797 283.813 162.933 283.791 163.062C283.768 163.215 283.648 163.32 283.544 163.32C282.802 163.336 282.054 163.336 281.313 163.32C281.2 163.32 281.073 163.223 281.066 163.062C281.043 162.797 281.021 162.531 281.021 162.265C281.021 160.477 281.021 158.697 281.021 156.908C281.021 156.417 281.006 155.926 280.946 155.442C280.833 154.605 280.452 153.92 279.74 153.517C279.141 153.179 278.49 153.05 277.809 153.163C277.562 153.203 277.322 153.276 277.082 153.348C276.132 153.646 275.525 154.331 275.211 155.33C275.039 155.886 274.971 156.457 274.971 157.045C274.979 158.656 274.971 160.259 274.971 161.87C274.971 162.225 274.971 162.587 274.956 162.942C274.956 163.183 274.799 163.352 274.559 163.352C273.893 163.352 273.234 163.352 272.568 163.352C272.403 163.352 272.238 163.183 272.231 163.022C272.223 162.797 272.208 162.579 272.208 162.354C272.208 158.826 272.208 155.297 272.208 151.769C272.208 151.504 272.209 151.23 272.253 150.972C272.268 150.851 272.373 150.73 272.508 150.73C273.212 150.73 273.916 150.722 274.619 150.738C274.724 150.738 274.821 150.859 274.851 151.012C274.911 151.302 274.791 151.633 275.001 151.898L275.016 151.882Z" fill="#F7A80A"/>
<path d="M55.0361 150.843C55.0661 151.173 55.1035 151.528 55.1409 151.866C55.2458 151.866 55.3431 151.898 55.403 151.866C55.6126 151.729 55.8073 151.552 56.0169 151.415C57.11 150.674 58.3229 150.424 59.5882 150.529C60.0374 150.569 60.4941 150.666 60.9283 150.811C62.4781 151.351 63.4289 152.519 63.8257 154.194C63.968 154.798 64.0504 155.418 64.0504 156.047C64.0429 158.189 64.0504 160.332 64.0504 162.474C64.0504 162.611 64.0429 162.74 64.0354 162.877C64.0204 163.119 63.8632 163.32 63.661 163.328C63.2492 163.336 62.83 163.344 62.4182 163.344C61.2353 163.344 61.2428 163.385 61.2502 162.112C61.2502 160.412 61.2577 158.721 61.2502 157.021C61.2502 156.49 61.2278 155.95 61.1529 155.418C60.9807 154.307 60.4042 153.574 59.3636 153.268C58.4277 152.994 57.5517 153.155 56.7132 153.614C56.0469 153.977 55.6501 154.605 55.4254 155.346C55.2383 155.942 55.1784 156.562 55.1784 157.19C55.1933 158.89 55.1784 160.581 55.1784 162.281C55.1784 162.547 55.1634 162.821 55.1335 163.078C55.126 163.151 55.0361 163.256 54.9762 163.272C54.7741 163.312 54.5645 163.336 54.3623 163.336C52.1237 163.296 52.4532 163.707 52.4457 161.314C52.4307 158.278 52.4457 155.241 52.4457 152.204C52.4457 151.802 52.4457 151.399 52.4831 151.004C52.4906 150.908 52.6253 150.747 52.7077 150.738C53.4489 150.674 54.1901 150.618 54.9313 150.763C54.9687 150.763 54.9987 150.811 55.0661 150.851L55.0361 150.843Z" fill="#F7A707"/>
<path d="M170.604 157.07C170.604 158.809 170.604 160.557 170.604 162.297C170.604 162.563 170.581 162.829 170.544 163.095C170.536 163.159 170.432 163.264 170.372 163.272C169.668 163.288 168.964 163.288 168.26 163.28C168.133 163.28 168.051 163.143 168.036 163.006C168.006 162.74 168.006 162.474 167.968 162.209C167.968 162.168 167.819 162.096 167.781 162.112C167.564 162.249 167.369 162.41 167.16 162.555C165.318 163.828 163.409 163.828 161.47 162.861C160.571 162.41 159.95 161.629 159.561 160.654C159.298 159.993 159.141 159.301 159.104 158.576C159.089 158.262 159.089 157.948 159.089 157.641C159.089 155.716 159.089 153.799 159.089 151.874C159.089 151.608 159.096 151.343 159.111 151.069C159.111 150.883 159.254 150.706 159.403 150.706C160.152 150.706 160.893 150.706 161.642 150.714C161.702 150.714 161.807 150.819 161.814 150.883C161.852 151.149 161.866 151.415 161.866 151.681C161.866 153.469 161.874 155.257 161.866 157.045C161.866 157.633 161.926 158.205 162.031 158.777C162.256 160.01 163.199 160.807 164.315 160.863C164.854 160.888 165.385 160.863 165.909 160.654C166.703 160.34 167.235 159.76 167.549 158.938C167.691 158.568 167.796 158.181 167.811 157.77C167.826 157.327 167.841 156.876 167.841 156.433C167.841 154.871 167.841 153.308 167.841 151.745C167.841 151.479 167.856 151.206 167.878 150.948C167.886 150.875 167.968 150.763 168.028 150.755C168.814 150.634 169.593 150.65 170.379 150.738C170.439 150.738 170.536 150.851 170.544 150.916C170.581 151.181 170.596 151.447 170.596 151.713C170.596 153.501 170.596 155.289 170.596 157.078L170.604 157.07Z" fill="#F7A605"/>
<path d="M104.532 157.07C104.532 158.809 104.532 160.549 104.532 162.289C104.532 162.555 104.517 162.821 104.48 163.087C104.472 163.159 104.375 163.256 104.307 163.264C104.023 163.296 103.731 163.312 103.439 163.32C103.065 163.32 102.69 163.32 102.323 163.304C102.084 163.304 101.972 163.175 101.949 162.885C101.927 162.66 101.934 162.442 101.904 162.217C101.904 162.168 101.762 162.088 101.725 162.104C101.545 162.209 101.373 162.337 101.208 162.458C99.4036 163.787 97.4869 163.828 95.5328 162.925C94.4547 162.426 93.751 161.484 93.3616 160.3C93.167 159.712 93.0322 159.099 93.0322 158.471C93.0322 156.022 93.0322 153.566 93.0322 151.117C93.0322 150.851 93.167 150.698 93.3991 150.682C93.6087 150.674 93.8109 150.658 94.0205 150.666C96.1019 150.706 95.7724 150.32 95.7949 152.559C95.8099 154.162 95.8024 155.773 95.7949 157.376C95.7949 157.915 95.8548 158.439 95.997 158.962C96.319 160.114 97.1575 160.823 98.2805 160.871C98.8196 160.896 99.3512 160.863 99.8678 160.646C100.609 160.34 101.126 159.792 101.44 159.027C101.627 158.576 101.747 158.101 101.754 157.601C101.754 157.158 101.769 156.707 101.769 156.264C101.769 154.661 101.769 153.05 101.769 151.447C101.769 151.31 101.784 151.181 101.792 151.045C101.799 150.875 101.949 150.698 102.099 150.698C102.803 150.698 103.506 150.698 104.21 150.698C104.367 150.698 104.502 150.867 104.51 151.053C104.517 151.407 104.532 151.761 104.532 152.124C104.532 153.775 104.532 155.426 104.532 157.078V157.07Z" fill="#F7A605"/>
<path d="M203.142 156.949C203.142 155.209 203.142 153.469 203.142 151.729C203.142 151.463 203.157 151.198 203.195 150.932C203.202 150.859 203.284 150.771 203.352 150.746C203.464 150.706 203.591 150.698 203.719 150.69C204.13 150.69 204.55 150.69 204.961 150.69C205.65 150.69 205.733 150.674 205.74 151.504C205.74 151.592 205.755 151.681 205.763 151.769C205.777 151.898 205.935 151.979 206.04 151.906C206.107 151.858 206.189 151.826 206.249 151.769C207.14 150.956 208.218 150.65 209.349 150.521C210.142 150.432 210.928 150.569 211.677 150.843C213.437 151.471 214.328 152.881 214.627 154.782C214.672 155.088 214.687 155.402 214.687 155.716C214.687 158.036 214.687 160.356 214.687 162.684C214.687 162.772 214.672 162.861 214.672 162.95C214.657 163.127 214.522 163.312 214.38 163.312C213.676 163.312 212.972 163.312 212.269 163.312C212.111 163.312 211.962 163.135 211.954 162.966C211.939 162.611 211.932 162.249 211.932 161.894C211.932 160.106 211.932 158.326 211.932 156.538C211.932 155.998 211.909 155.475 211.737 154.959C211.445 154.097 210.913 153.558 210.09 153.292C209.199 153.01 208.36 153.131 207.552 153.542C206.564 154.041 206.092 154.959 205.942 156.079C205.882 156.522 205.897 156.973 205.897 157.416C205.897 159.067 205.897 160.718 205.897 162.37C205.897 162.595 205.897 162.821 205.86 163.038C205.837 163.151 205.755 163.28 205.613 163.296C204.872 163.385 204.123 163.377 203.382 163.288C203.314 163.288 203.224 163.175 203.217 163.111C203.18 162.845 203.165 162.579 203.165 162.313C203.165 160.525 203.165 158.745 203.165 156.957L203.142 156.949Z" fill="#F7A606"/>
<path d="M66.2812 162.023C66.4385 161.395 66.7679 160.823 67.0599 160.243C67.1722 160.026 67.3668 159.953 67.5915 160.074C68.5273 160.581 69.5231 160.871 70.5563 161.033C71.3499 161.161 72.1285 161.089 72.8922 160.839C73.1767 160.751 73.4088 160.573 73.5959 160.316C73.9254 159.848 73.828 159.22 73.3713 158.914C73.012 158.672 72.6226 158.544 72.2109 158.471C71.6419 158.366 71.0654 158.286 70.4889 158.173C69.8824 158.052 69.261 157.948 68.6845 157.682C68.415 157.561 68.1455 157.448 67.8984 157.287C67.0674 156.739 66.5732 155.95 66.5508 154.879C66.5358 154.299 66.5283 153.719 66.7529 153.171C67.0225 152.494 67.4567 151.963 68.0182 151.552C68.5722 151.149 69.1862 150.859 69.8375 150.722C70.8557 150.505 71.8815 150.432 72.9296 150.602C73.7981 150.738 74.6441 150.924 75.4602 151.262C75.6174 151.326 75.7597 151.423 75.9019 151.504C75.9917 151.552 76.0741 151.761 76.0367 151.85C75.7746 152.406 75.5201 152.97 75.2431 153.517C75.1457 153.719 74.9511 153.799 74.704 153.678C73.4612 153.058 72.1585 152.929 70.8108 153.066C70.3841 153.115 70.0022 153.252 69.6653 153.533C69.4183 153.735 69.2835 154.009 69.2685 154.339C69.2535 154.718 69.3808 155.04 69.6953 155.249C70.1669 155.563 70.691 155.684 71.2226 155.789C72.0387 155.95 72.8547 156.111 73.6633 156.304C74.0601 156.401 74.4569 156.562 74.8313 156.739C76.3287 157.44 76.7255 159.035 76.4335 160.404C76.2538 161.226 75.842 161.87 75.2206 162.37C74.6441 162.829 74.0002 163.111 73.3114 163.304C72.2483 163.602 71.1702 163.626 70.0996 163.505C68.9391 163.377 67.8161 163.054 66.7679 162.49C66.6556 162.434 66.5508 162.354 66.4535 162.273C66.3936 162.217 66.3561 162.136 66.2812 162.031V162.023Z" fill="#F7A708"/>
<path d="M297.664 153.461C297.132 153.952 296.526 154.25 295.964 154.621C295.777 154.742 295.59 154.709 295.41 154.5C294.968 153.952 294.459 153.517 293.808 153.284C291.839 152.567 289.421 153.767 289.174 156.457C289.106 157.166 289.129 157.875 289.376 158.568C289.862 159.953 290.776 160.743 292.131 160.936C293.119 161.081 294.04 160.896 294.826 160.211C295.111 159.961 295.343 159.639 295.612 159.341C295.74 159.381 295.867 159.389 295.964 159.446C296.436 159.728 296.9 160.026 297.357 160.324C297.634 160.501 297.679 160.718 297.521 160.984C296.923 161.999 296.091 162.716 295.036 163.111C292.865 163.908 290.776 163.699 288.859 162.329C287.354 161.258 286.538 159.712 286.373 157.762C286.321 157.094 286.336 156.425 286.433 155.765C286.643 154.347 287.272 153.163 288.275 152.221C289.166 151.383 290.207 150.875 291.382 150.65C292.341 150.465 293.276 150.473 294.22 150.698C295.56 151.02 296.698 151.697 297.447 152.986C297.529 153.131 297.581 153.3 297.649 153.477L297.664 153.461Z" fill="#F7A708"/>
<path d="M150.202 156.554C150.202 155.62 150.202 154.677 150.202 153.743C150.202 153.34 150.03 153.155 149.693 153.147C149.363 153.131 149.026 153.131 148.697 153.115C148.465 153.107 148.323 152.954 148.323 152.688C148.323 152.196 148.315 151.705 148.323 151.214C148.323 150.924 148.502 150.747 148.809 150.747C150.382 150.73 150.194 150.803 150.217 149.216C150.217 148.902 150.224 148.596 150.239 148.282C150.247 148.056 150.426 147.871 150.651 147.871C151.31 147.871 151.976 147.879 152.635 147.895C152.785 147.895 152.965 148.08 152.972 148.233C152.987 148.765 152.994 149.305 153.009 149.836C153.009 150.062 153.032 150.279 153.069 150.497C153.084 150.569 153.167 150.65 153.242 150.674C153.354 150.714 153.481 150.73 153.608 150.73C154.147 150.73 154.687 150.73 155.226 150.73C156.102 150.73 156.176 150.73 156.169 151.81C156.169 152.076 156.169 152.341 156.161 152.615C156.154 152.962 156.019 153.115 155.72 153.123C155.053 153.131 154.395 153.123 153.728 153.139C153.563 153.139 153.399 153.171 153.249 153.219C153.182 153.235 153.114 153.324 153.092 153.405C153.047 153.525 153.024 153.662 153.024 153.791C153.024 155.531 153.024 157.271 153.024 159.011C153.024 159.188 153.039 159.365 153.054 159.542C153.137 160.759 154.132 161.145 154.889 161.073C155.091 161.057 155.293 160.984 155.488 160.912C156.319 160.622 156.161 160.59 156.528 161.468C156.596 161.629 156.641 161.806 156.708 161.967C157 162.676 156.888 162.861 156.191 163.159C154.993 163.675 153.758 163.699 152.545 163.256C151.347 162.813 150.614 161.894 150.374 160.565C150.277 160.042 150.254 159.502 150.239 158.971C150.217 158.165 150.239 157.368 150.239 156.562H150.232L150.202 156.554Z" fill="#F7A709"/>
<path d="M224.457 160.71C224.524 160.775 224.607 160.815 224.637 160.888C224.899 161.443 225.116 162.015 225.273 162.603C225.161 162.724 225.093 162.853 224.996 162.917C223.544 163.731 222.046 163.779 220.556 163.078C219.381 162.523 218.819 161.468 218.662 160.147C218.61 159.752 218.625 159.341 218.625 158.938C218.625 157.327 218.625 155.724 218.625 154.113C218.625 153.888 218.625 153.662 218.572 153.453C218.55 153.348 218.423 153.211 218.325 153.195C217.876 153.139 217.419 153.123 216.963 153.09C216.813 153.082 216.716 152.945 216.708 152.841C216.686 152.261 216.693 151.681 216.708 151.101C216.708 150.94 216.88 150.779 217.045 150.771C217.457 150.746 217.876 150.73 218.288 150.706C218.452 150.698 218.61 150.537 218.61 150.36C218.625 149.643 218.64 148.934 218.655 148.217C218.655 148.056 218.827 147.895 218.984 147.879C219.111 147.871 219.231 147.855 219.358 147.847C219.77 147.847 220.189 147.847 220.601 147.847C221.35 147.847 221.372 147.984 221.38 148.693C221.38 149.232 221.387 149.764 221.402 150.303C221.402 150.537 221.574 150.714 221.799 150.714C222.465 150.722 223.124 150.722 223.791 150.73C223.955 150.73 224.128 150.73 224.285 150.787C224.382 150.819 224.517 150.956 224.524 151.045C224.554 151.624 224.554 152.204 224.539 152.776C224.539 152.873 224.412 153.01 224.315 153.05C224.165 153.107 223.993 153.115 223.828 153.115C223.207 153.123 222.585 153.115 221.956 153.123C221.507 153.123 221.395 153.26 221.387 153.783C221.387 155.571 221.387 157.36 221.387 159.148C221.387 159.196 221.387 159.236 221.387 159.285C221.402 160.622 222.48 161.274 223.536 161.016C223.858 160.936 224.165 160.807 224.472 160.694L224.457 160.71Z" fill="#F7A708"/>
<path d="M387.26 160.662C387.424 161.081 387.552 161.411 387.679 161.733C388.091 162.732 387.986 162.877 386.983 163.248C385.889 163.65 384.781 163.658 383.681 163.264C382.326 162.78 381.562 161.757 381.375 160.235C381.322 159.792 381.322 159.341 381.322 158.898C381.322 157.376 381.322 155.861 381.322 154.339C381.322 154.073 381.307 153.807 381.292 153.533C381.278 153.324 381.09 153.139 380.873 153.131C380.499 153.115 380.125 153.115 379.75 153.099C379.518 153.09 379.391 152.929 379.376 152.664C379.376 152.486 379.361 152.309 379.361 152.132C379.368 150.722 379.219 150.714 380.619 150.722C380.738 150.722 380.866 150.698 380.986 150.69C381.128 150.674 381.277 150.489 381.285 150.32C381.3 150.005 381.307 149.691 381.307 149.385C381.307 147.726 381.18 147.855 382.7 147.847C382.992 147.847 383.284 147.847 383.569 147.863C383.868 147.879 384.04 148.056 384.048 148.354C384.055 148.894 384.048 149.425 384.063 149.965C384.063 150.142 384.078 150.328 384.115 150.497C384.13 150.569 384.22 150.65 384.287 150.674C384.4 150.714 384.534 150.722 384.654 150.73C385.238 150.73 385.815 150.73 386.399 150.738C387.08 150.738 387.245 150.779 387.222 151.689C387.222 152.092 387.192 152.486 387.155 152.881C387.155 152.945 387.057 153.034 386.99 153.058C386.878 153.107 386.75 153.123 386.631 153.123C385.964 153.131 385.305 153.123 384.639 153.139C384.519 153.139 384.392 153.163 384.28 153.211C384.212 153.235 384.145 153.324 384.123 153.397C384.085 153.517 384.063 153.654 384.063 153.791C384.063 155.579 384.063 157.368 384.063 159.148C384.063 159.373 384.078 159.599 384.123 159.808C384.235 160.316 384.497 160.686 384.961 160.896C385.403 161.089 385.844 161.137 386.301 160.984C386.578 160.888 386.848 160.791 387.237 160.662H387.26Z" fill="#F7A708"/>
<path d="M406.239 150.706C406.269 151.254 406.291 151.649 406.314 152.043C406.426 152.043 406.524 152.059 406.576 152.019C406.778 151.858 406.95 151.665 407.152 151.504C408.013 150.811 409.017 150.569 410.065 150.513C410.192 150.513 410.387 150.714 410.394 150.859C410.439 151.616 410.484 152.366 410.357 153.115C410.357 153.155 410.319 153.195 410.274 153.276C409.975 153.292 409.646 153.316 409.316 153.34C408.058 153.437 406.771 154.266 406.494 156.047C406.404 156.618 406.351 157.19 406.351 157.778C406.351 159.252 406.351 160.718 406.351 162.192C406.351 162.418 406.351 162.635 406.336 162.861C406.329 163.127 406.187 163.296 405.97 163.304C405.303 163.304 404.644 163.312 403.978 163.304C403.768 163.304 403.619 163.103 403.611 162.853C403.604 162.587 403.596 162.321 403.596 162.047C403.596 158.656 403.596 155.265 403.596 151.874C403.596 151.56 403.596 151.246 403.641 150.94C403.656 150.827 403.746 150.706 403.896 150.69C404.637 150.626 405.378 150.658 406.224 150.682L406.239 150.706Z" fill="#F7A708"/>
<path d="M250.519 156.981C250.519 155.193 250.519 153.413 250.519 151.624C250.519 151.399 250.519 151.173 250.564 150.964C250.586 150.867 250.721 150.73 250.811 150.722C251.47 150.698 252.136 150.698 252.795 150.698C252.967 150.698 253.109 150.843 253.124 151.02C253.154 151.286 253.177 151.552 253.207 151.81C253.214 151.914 253.416 152.003 253.499 151.939C253.596 151.858 253.701 151.778 253.791 151.689C254.689 150.875 255.76 150.593 256.898 150.521C257.055 150.513 257.235 150.674 257.235 150.835C257.235 151.592 257.235 152.349 257.212 153.107C257.212 153.171 257.107 153.276 257.047 153.284C256.718 153.324 256.389 153.324 256.059 153.364C255.146 153.461 254.39 153.896 253.858 154.701C253.491 155.257 253.326 155.91 253.274 156.586C253.252 156.941 253.252 157.303 253.252 157.658C253.252 159.22 253.252 160.783 253.252 162.345C253.252 162.523 253.252 162.7 253.237 162.877C253.222 163.135 253.087 163.312 252.87 163.32C252.331 163.336 251.792 163.336 251.253 163.344C251.125 163.344 251.006 163.328 250.878 163.32C250.654 163.304 250.526 163.143 250.519 162.877C250.511 162.523 250.504 162.16 250.504 161.806C250.504 160.203 250.504 158.592 250.504 156.989L250.519 156.981Z" fill="#F7A606"/>
<path d="M108.201 156.933C108.201 155.193 108.201 153.453 108.201 151.713C108.201 151.447 108.216 151.181 108.253 150.916C108.261 150.843 108.35 150.771 108.425 150.738C108.493 150.698 108.59 150.698 108.672 150.698C109.256 150.698 109.833 150.698 110.417 150.698C110.664 150.698 110.806 150.835 110.836 151.077C110.866 151.343 110.896 151.6 110.933 151.866C110.948 151.963 111.038 152.019 111.121 151.963C111.33 151.826 111.525 151.665 111.72 151.512C112.588 150.827 113.591 150.585 114.639 150.545C114.782 150.545 114.939 150.714 114.946 150.9C114.954 151.431 114.969 151.971 114.969 152.502C114.969 153.252 114.939 153.348 114.213 153.348C113.756 153.348 113.307 153.421 112.88 153.606C112.064 153.968 111.51 154.573 111.21 155.467C111.023 156.022 110.956 156.586 110.956 157.174C110.956 158.689 110.956 160.211 110.956 161.725C110.956 162.128 110.948 162.531 110.933 162.925C110.933 163.143 110.746 163.328 110.529 163.328C109.863 163.328 109.204 163.32 108.538 163.304C108.388 163.304 108.238 163.127 108.231 162.958C108.223 162.603 108.208 162.241 108.208 161.886C108.208 160.235 108.208 158.584 108.208 156.933H108.201Z" fill="#F7A606"/>
<path d="M105.019 127.573C105.019 128.91 105.019 130.247 105.019 131.576C105.019 131.93 105.019 132.293 105.019 132.647C105.004 133.106 104.869 133.227 104.375 133.219C104.255 133.219 104.128 133.203 104.008 133.155C103.941 133.131 103.873 133.05 103.836 132.978C103.798 132.905 103.776 132.808 103.776 132.72C103.776 130.223 103.776 127.726 103.776 125.229C103.776 125.188 103.791 125.14 103.791 125.1C103.806 124.923 103.948 124.754 104.098 124.737C104.51 124.689 104.921 124.681 105.341 124.786C105.483 125.068 105.633 125.333 105.76 125.607C106.344 126.888 106.92 128.169 107.504 129.449C107.594 129.651 107.714 129.836 107.841 130.005C107.864 130.037 108.021 130.021 108.051 129.973C108.171 129.796 108.276 129.603 108.365 129.401C108.949 128.12 109.518 126.832 110.102 125.551C110.23 125.277 110.387 125.019 110.537 124.737C110.896 124.721 111.225 124.705 111.555 124.705C111.937 124.705 112.071 124.85 112.079 125.269C112.086 125.583 112.079 125.889 112.079 126.203C112.079 128.12 112.079 130.037 112.079 131.955C112.079 132.269 112.064 132.575 112.041 132.889C112.034 133.034 111.862 133.195 111.69 133.203C111.525 133.203 111.36 133.211 111.195 133.203C110.971 133.187 110.814 133.018 110.814 132.768C110.806 131.568 110.799 130.36 110.791 129.16C110.791 128.716 110.761 128.273 110.746 127.83C110.746 127.726 110.679 127.685 110.574 127.71C110.537 127.718 110.492 127.734 110.477 127.758C110.372 127.943 110.26 128.137 110.162 128.33C109.691 129.369 109.219 130.416 108.747 131.455C108.657 131.657 108.567 131.858 108.463 132.051C108.268 132.414 107.587 132.422 107.385 132.051C107.257 131.826 107.145 131.584 107.04 131.342C106.516 130.182 105.999 129.015 105.475 127.855C105.423 127.742 105.348 127.629 105.258 127.54C105.221 127.5 105.116 127.54 105.011 127.557L105.019 127.573Z" fill="#F8AB12"/>
<path d="M99.6207 124.721C100.489 124.721 101.358 124.721 102.226 124.721C102.511 124.721 102.66 124.898 102.668 125.237C102.668 125.366 102.668 125.503 102.66 125.64C102.66 125.68 102.66 125.736 102.638 125.768C102.593 125.841 102.533 125.946 102.473 125.954C102.189 125.994 101.897 126.002 101.612 126.018C101.238 126.034 100.871 126.05 100.497 126.083C100.437 126.083 100.339 126.187 100.324 126.252C100.287 126.469 100.272 126.687 100.272 126.912C100.272 128.427 100.272 129.941 100.272 131.455C100.272 131.81 100.272 132.164 100.272 132.526C100.265 133.122 100.16 133.235 99.6282 133.235C99.5084 133.235 99.3736 133.243 99.2613 133.195C99.164 133.147 99.0367 133.042 99.0142 132.945C98.9693 132.688 98.9618 132.414 98.9618 132.148C98.9618 130.456 98.9618 128.765 98.9618 127.073C98.9618 126.807 98.9469 126.542 98.9169 126.276C98.9094 126.203 98.8196 126.099 98.7597 126.091C98.5126 126.05 98.2656 126.034 98.0185 126.018C97.6067 125.994 97.1949 125.986 96.7832 125.954C96.7233 125.954 96.6334 125.841 96.6184 125.776C96.5885 125.607 96.5735 125.422 96.581 125.245C96.5885 124.907 96.7382 124.729 97.0227 124.721C97.4345 124.713 97.8463 124.713 98.2656 124.713C98.7223 124.713 99.179 124.713 99.6282 124.713L99.6207 124.721Z" fill="#F7A80A"/>
</g>
<defs>
<clipPath id="clip0_636_3580">
<rect width="427" height="168" fill="white"/>
</clipPath>
</defs>
</svg>
