<svg width="24" height="25" viewBox="0 0 24 25" fill="none" xmlns="http://www.w3.org/2000/svg">
<rect x="0.75" y="1.25" width="22.5" height="22.5" rx="11.25" stroke="currentColor" stroke-width="1.5"/>
<path d="M11.9998 15.3672C11.3346 15.3672 10.783 14.8156 10.783 14.1504V13.8098C10.783 11.9278 12.162 11.003 12.6812 10.6461C13.2815 10.2405 13.4762 9.96466 13.4762 9.54283C13.4762 8.73162 12.811 8.06638 11.9998 8.06638C11.1886 8.06638 10.5235 8.73162 10.5235 9.54283C10.5235 10.208 9.97184 10.7596 9.30665 10.7596C8.64146 10.7596 8.08984 10.208 8.08984 9.54283C8.08984 7.38502 9.84201 5.63276 11.9998 5.63276C14.1576 5.63276 15.9098 7.38502 15.9098 9.54283C15.9098 11.3924 14.547 12.3171 14.0441 12.6578C13.4113 13.0797 13.2166 13.3555 13.2166 13.8098V14.1504C13.2166 14.8318 12.665 15.3672 11.9998 15.3672Z" fill="currentColor"/>
<path d="M12 19.3672C11.16 19.3672 10.5 18.6872 10.5 17.8672C10.5 17.0472 11.18 16.3672 12 16.3672C12.82 16.3672 13.5 17.0472 13.5 17.8672C13.5 18.6872 12.84 19.3672 12 19.3672Z" fill="currentColor"/>
</svg>
