<svg width="24" height="25" viewBox="0 0 24 25" fill="none" xmlns="http://www.w3.org/2000/svg">
<path d="M3 12.5C3 12.7652 3.10536 13.0196 3.29289 13.2071C3.48043 13.3946 3.73478 13.5 4 13.5H10C10.2652 13.5 10.5196 13.3946 10.7071 13.2071C10.8946 13.0196 11 12.7652 11 12.5V4.5C11 4.23478 10.8946 3.98043 10.7071 3.79289C10.5196 3.60536 10.2652 3.5 10 3.5H4C3.73478 3.5 3.48043 3.60536 3.29289 3.79289C3.10536 3.98043 3 4.23478 3 4.5V12.5ZM3 20.5C3 20.7652 3.10536 21.0196 3.29289 21.2071C3.48043 21.3946 3.73478 21.5 4 21.5H10C10.2652 21.5 10.5196 21.3946 10.7071 21.2071C10.8946 21.0196 11 20.7652 11 20.5V16.5C11 16.2348 10.8946 15.9804 10.7071 15.7929C10.5196 15.6054 10.2652 15.5 10 15.5H4C3.73478 15.5 3.48043 15.6054 3.29289 15.7929C3.10536 15.9804 3 16.2348 3 16.5V20.5ZM13 20.5C13 20.7652 13.1054 21.0196 13.2929 21.2071C13.4804 21.3946 13.7348 21.5 14 21.5H20C20.2652 21.5 20.5196 21.3946 20.7071 21.2071C20.8946 21.0196 21 20.7652 21 20.5V12.5C21 12.2348 20.8946 11.9804 20.7071 11.7929C20.5196 11.6054 20.2652 11.5 20 11.5H14C13.7348 11.5 13.4804 11.6054 13.2929 11.7929C13.1054 11.9804 13 12.2348 13 12.5V20.5ZM14 3.5C13.7348 3.5 13.4804 3.60536 13.2929 3.79289C13.1054 3.98043 13 4.23478 13 4.5V8.5C13 8.76522 13.1054 9.01957 13.2929 9.20711C13.4804 9.39464 13.7348 9.5 14 9.5H20C20.2652 9.5 20.5196 9.39464 20.7071 9.20711C20.8946 9.01957 21 8.76522 21 8.5V4.5C21 4.23478 20.8946 3.98043 20.7071 3.79289C20.5196 3.60536 20.2652 3.5 20 3.5H14Z" fill="currentColor"/>
</svg>
