<svg width="24" height="25" viewBox="0 0 24 25" fill="none" xmlns="http://www.w3.org/2000/svg">
<path d="M16.8301 16.14C17.5001 15.7 18.3801 16.18 18.3801 16.98V18.27C18.3801 19.54 17.3901 20.9 16.2001 21.3L13.0101 22.36C12.4501 22.55 11.5401 22.55 10.9901 22.36L7.80012 21.3C6.60012 20.9 5.62012 19.54 5.62012 18.27V16.97C5.62012 16.18 6.50012 15.7 7.16012 16.13L9.22012 17.47C10.0101 18 11.0101 18.26 12.0101 18.26C13.0101 18.26 14.0101 18 14.8001 17.47L16.8301 16.14Z" fill="currentColor"/>
<path d="M19.98 6.96L13.99 3.03C12.91 2.32 11.13 2.32 10.05 3.03L4.03002 6.96C2.10002 8.21 2.10002 11.04 4.03002 12.3L5.63002 13.34L10.05 16.22C11.13 16.93 12.91 16.93 13.99 16.22L18.38 13.34L19.75 12.44V15.5C19.75 15.91 20.09 16.25 20.5 16.25C20.91 16.25 21.25 15.91 21.25 15.5V10.58C21.65 9.29 21.24 7.79 19.98 6.96Z" fill="currentColor"/>
</svg>
