<svg width="68" height="68" viewBox="0 0 68 68" fill="none" xmlns="http://www.w3.org/2000/svg">
<path opacity="0.58" d="M67.5146 0.485352V67.5146H0.485352V0.485352H67.5146Z" stroke="none" stroke-width="0.970923"/>
<path d="M24.5649 6.63745H33.0298V23.5662H24.5649C19.888 23.566 16.1011 19.7783 16.1011 15.1013C16.1013 10.5706 19.6553 6.87476 24.1294 6.64819L24.5649 6.63745Z" fill="currentColor" stroke="none" stroke-width="1.94185"/>
<path d="M24.5649 25.5357H33.0298V42.4644H24.5649C19.888 42.4643 16.1011 38.6766 16.1011 33.9996C16.1013 29.4688 19.6553 25.773 24.1294 25.5464L24.5649 25.5357Z" fill="currentColor" stroke="none" stroke-width="1.94185"/>
<path d="M24.5649 44.4058H33.0298V52.8696C33.0298 57.5467 29.2421 61.3345 24.5649 61.3345C19.888 61.3343 16.1011 57.5466 16.1011 52.8696C16.1013 48.3389 19.6553 44.6431 24.1294 44.4165L24.5649 44.4058Z" fill="currentColor" stroke="none" stroke-width="1.94185"/>
<path d="M43.4346 6.63745C48.1115 6.63745 51.8992 10.4244 51.8994 15.1013C51.8994 19.7784 48.1117 23.5662 43.4346 23.5662H34.9707V6.63745H43.4346Z" fill="currentColor" stroke="none" stroke-width="1.94185"/>
<path d="M43.4346 25.5357C48.1115 25.5357 51.8992 29.3226 51.8994 33.9996C51.8994 38.6767 48.1117 42.4644 43.4346 42.4644C38.7577 42.4642 34.9707 38.6765 34.9707 33.9996C34.9709 29.3228 38.7578 25.536 43.4346 25.5357Z" fill="currentColor" stroke="none" stroke-width="1.94185"/>
</svg>
