<svg width="68" height="68" viewBox="0 0 68 68" fill="none" xmlns="http://www.w3.org/2000/svg">
<path d="M36.5 34C42.75 34 48.0625 33.0208 52.4375 31.0625C56.8125 29.1041 59 26.75 59 24C59 21.25 56.8125 18.8958 52.4375 16.9375C48.0625 14.9792 42.75 14 36.5 14C30.25 14 24.9375 14.9792 20.5625 16.9375C16.1875 18.8958 14 21.25 14 24C14 26.75 16.1875 29.1041 20.5625 31.0625C24.9375 33.0208 30.25 34 36.5 34ZM36.5 40.25C38.2083 40.25 40.3442 40.0725 42.9075 39.7175C45.4708 39.3625 47.9392 38.79 50.3125 38C52.6858 37.21 54.7275 36.1791 56.4375 34.9075C58.1475 33.6358 59.0017 32.0833 59 30.25V36.5C59 38.3333 58.1458 39.8858 56.4375 41.1575C54.7292 42.4291 52.6875 43.46 50.3125 44.25C47.9375 45.04 45.4692 45.6133 42.9075 45.97C40.3458 46.3266 38.21 46.5033 36.5 46.5C34.79 46.4966 32.655 46.3191 30.095 45.9675C27.535 45.6158 25.0658 45.0433 22.6875 44.25C20.3092 43.4566 18.2675 42.4258 16.5625 41.1575C14.8575 39.8891 14.0033 38.3366 14 36.5V30.25C14 32.0833 14.8542 33.6358 16.5625 34.9075C18.2708 36.1791 20.3125 37.21 22.6875 38C25.0625 38.79 27.5317 39.3633 30.095 39.72C32.6583 40.0766 34.7933 40.2533 36.5 40.25ZM36.5 52.75C38.2083 52.75 40.3442 52.5725 42.9075 52.2175C45.4708 51.8625 47.9392 51.29 50.3125 50.5C52.6858 49.71 54.7275 48.6791 56.4375 47.4075C58.1475 46.1358 59.0017 44.5833 59 42.75V49C59 50.8333 58.1458 52.3858 56.4375 53.6575C54.7292 54.9291 52.6875 55.96 50.3125 56.75C47.9375 57.54 45.4692 58.1133 42.9075 58.47C40.3458 58.8266 38.21 59.0033 36.5 59C34.79 58.9966 32.655 58.8191 30.095 58.4675C27.535 58.1158 25.0658 57.5433 22.6875 56.75C20.3092 55.9566 18.2675 54.9258 16.5625 53.6575C14.8575 52.3891 14.0033 50.8366 14 49V42.75C14 44.5833 14.8542 46.1358 16.5625 47.4075C18.2708 48.6791 20.3125 49.71 22.6875 50.5C25.0625 51.29 27.5317 51.8633 30.095 52.22C32.6583 52.5766 34.7933 52.7533 36.5 52.75Z" fill="currentColor"/>
</svg>
