<svg width="895" height="1024" viewBox="0 0 895 1024" fill="none" xmlns="http://www.w3.org/2000/svg">
<path d="M91.5591 126.37C267.316 188.564 463.103 146.983 598.413 18.7254L810.365 -182.181L-122.958 -603.469L-721.771 723.144L-503.461 345.699C-383.817 138.841 -133.719 46.6534 91.5591 126.37Z" fill="#FBF3E3"/>
<path d="M129.615 42.0614C305.372 104.255 501.159 62.6739 636.468 -65.5836L848.421 -266.49L-84.9022 -687.778L-683.715 638.835L-465.405 261.39C-345.761 54.5323 -95.6632 -37.6555 129.615 42.0614Z" fill="#FFEECC"/>
<path d="M157.875 -69.1606C333.633 -6.96705 529.42 -48.5481 664.729 -176.806L876.682 -377.712L-56.6415 -799L-655.455 527.613L-437.145 150.168C-317.5 -56.6896 -67.4025 -148.878 157.875 -69.1606Z" fill="#FFDD99" fill-opacity="0.4"/>
</svg>
