<svg width="108" height="60" viewBox="0 0 108 60" fill="none" xmlns="http://www.w3.org/2000/svg">
<path d="M39.0358 25.8494C38.9598 28.2651 40.1542 29.3348 40.1838 30.0142C40.1698 30.1525 40.1232 30.2854 40.0479 30.4017C39.9726 30.5181 39.8709 30.6145 39.7512 30.683L38.4006 31.6386C38.2258 31.7624 38.0198 31.8335 37.8066 31.8434C37.7612 31.8412 36.9424 32.0385 35.6457 29.1119C34.8546 30.1102 33.848 30.9123 32.7029 31.4567C31.5579 32.0011 30.3047 32.2735 29.0395 32.2529C27.3218 32.3478 22.6665 31.2674 22.906 26.2579C22.7383 22.1751 26.4998 19.6389 30.3901 19.8533C31.1392 19.8554 32.6692 19.8927 35.3481 20.522V18.856C35.632 16.034 33.7971 13.8444 30.6201 14.1729C30.3669 14.1739 28.5731 14.1195 25.7834 15.2511C25.0068 15.6116 24.9076 15.5519 24.6491 15.5519C23.8673 15.5519 24.1891 13.261 24.3389 12.9709C24.8886 12.2883 28.1226 11.0137 31.2964 11.0319C33.4186 10.8422 35.5293 11.5042 37.1725 12.8749C37.8403 13.6301 38.3498 14.5143 38.6703 15.4741C38.9907 16.4339 39.1154 17.4494 39.0369 18.4593L39.0358 25.8494ZM29.9174 29.3039C33.3392 29.2538 34.7879 27.174 35.1181 26.0542C35.3777 24.9823 35.3344 24.304 35.3344 23.1318C34.3141 22.8844 32.8454 22.6146 31.1603 22.6124C29.5618 22.4908 26.6423 23.2129 26.7562 26.0531C26.6254 27.8438 27.9295 29.402 29.9174 29.3039ZM47.9517 31.7623C47.1223 31.8391 46.7361 31.244 46.6138 30.6563L41.3592 13.0956C41.2569 12.7991 41.1893 12.493 41.1566 12.1805C41.1372 12.0517 41.1692 11.9204 41.2456 11.8154C41.322 11.7104 41.4365 11.6403 41.5639 11.6206C41.5892 11.6163 41.3392 11.6206 43.9116 11.6206C44.838 11.5268 45.1397 12.2637 45.2358 12.7266L49.0047 27.7468L52.5035 12.7266C52.5594 12.3832 52.8137 11.546 53.8541 11.6345H55.6647C55.8936 11.6153 56.8369 11.5812 57.0026 12.7405L60.5288 27.9526L64.4191 12.7405C64.4697 12.508 64.7061 11.5278 65.757 11.6345H67.8377C67.9274 11.6206 68.4866 11.5481 68.3916 12.5496C68.3463 12.7469 68.7514 11.4126 62.8258 30.6702C62.7045 31.2578 62.3172 31.853 61.4879 31.7762H59.5159C58.3616 31.8988 58.1959 30.7459 58.178 30.6296L54.6792 16.0041L51.2205 30.6147C51.2036 30.731 51.0379 31.8839 49.8825 31.7612H47.9517V31.7623ZM76.8073 32.3628C76.1869 32.3638 73.2283 32.3308 70.7551 31.052C70.5087 30.9466 70.2989 30.7696 70.1522 30.5434C70.0055 30.3173 69.9285 30.0522 69.9311 29.7817V28.6352C69.9311 27.734 70.5852 27.8993 70.8627 28.007C71.9221 28.44 72.6016 28.7685 73.9026 29.0309C77.7696 29.834 79.4705 28.7856 79.8873 28.5531C81.2748 27.7201 81.3845 25.8142 80.4412 24.8255C79.3354 23.888 78.8079 23.8528 74.8353 22.5858C74.3457 22.4482 70.2244 21.1342 70.2149 17.0013C70.1505 13.9894 72.858 11.0095 77.5502 11.034C78.887 11.0329 82.4491 11.4745 83.4135 12.7C83.556 12.9229 83.6266 13.1852 83.6161 13.4508V14.5291C83.6161 15.0026 83.4452 15.2394 83.1022 15.2394C82.2887 15.1477 80.8453 14.0481 77.9152 14.0929C77.1882 14.0545 73.7063 14.1899 73.8625 16.756C73.8171 18.7782 76.6702 19.5365 76.9962 19.624C80.8432 20.794 82.1294 20.9881 83.6562 22.7788C85.4647 25.1519 84.4897 27.9302 84.1152 28.6917C82.102 32.6902 76.896 32.3649 76.8073 32.3628ZM81.049 43.5465C73.6599 49.0627 62.9334 51.9989 53.7749 51.9989C41.4173 52.0813 29.4761 47.4882 20.2988 39.1225C19.6098 38.4943 20.2176 37.6336 21.0553 38.1125C31.2357 43.9989 42.762 47.0918 54.4903 47.0843C63.2487 47.0369 71.9115 45.2409 79.9812 41.7995C81.2241 41.2663 82.2782 42.6315 81.049 43.5465ZM84.1289 39.996C83.1835 38.7674 77.8741 39.4222 75.4969 39.7091C74.7804 39.7912 74.6591 39.163 75.308 38.6991C79.5359 35.6946 86.4797 36.5553 87.2774 37.5654C88.074 38.5754 87.0611 45.6082 83.1033 48.9678C82.4955 49.4872 81.9142 49.2131 82.1843 48.5305C83.0748 46.2641 85.0743 41.2257 84.1289 39.996Z" fill="currentColor"/>
</svg>
