<svg width="68" height="68" viewBox="0 0 68 68" fill="none" xmlns="http://www.w3.org/2000/svg">
<path d="M56.3265 5.66669H11.6448C9.94477 5.66669 8.64147 7.14002 8.8398 8.81169L13.9398 54.7684C14.0531 55.9017 14.8749 56.865 15.9799 57.1767L33.2064 62.1067C33.7164 62.2484 34.2549 62.2484 34.7649 62.1067L51.9914 57.1767C53.0964 56.865 53.8898 55.9017 54.0315 54.7684L59.1315 8.81169C59.3298 7.14002 58.0265 5.66669 56.3265 5.66669ZM46.0415 21.25H24.3382L25.2731 29.75H44.6248C45.2198 29.75 45.7865 30.005 46.2115 30.4584C46.6081 30.9117 46.8065 31.5067 46.7498 32.1017L45.3331 46.2684C45.2481 47.1467 44.6532 47.855 43.8032 48.11L33.8865 50.9433C33.6882 51 33.4898 51.0283 33.2915 51.0283C33.0931 51.0283 32.8948 51 32.6964 50.9433L22.7798 48.11C21.8731 47.855 21.2498 47.005 21.2498 46.07V40.4033C21.2498 39.2417 22.2131 38.2783 23.3748 38.2783C24.5365 38.2783 25.4998 39.2417 25.4998 40.4033V44.455L33.2915 46.6933L41.2248 44.4267L42.2731 34.0283H23.3748C22.2981 34.0283 21.3915 33.2067 21.2498 32.13L19.8331 19.38C19.7765 18.785 19.9465 18.19 20.3715 17.7367C20.7682 17.2833 21.3631 17.0283 21.9581 17.0283H46.0415C47.2031 17.0283 48.1665 17.9917 48.1665 19.1533C48.1665 20.315 47.2031 21.25 46.0415 21.25Z" fill="currentColor"/>
</svg>
