<svg width="68" height="68" viewBox="0 0 68 68" fill="none" xmlns="http://www.w3.org/2000/svg">
<path d="M60.2087 36.125C61.3987 36.125 62.3337 35.1617 62.3337 34C62.3337 32.81 61.3987 31.875 60.2087 31.875H56.667V25.6417H60.2087C61.3987 25.6417 62.3337 24.7067 62.3337 23.5167C62.3337 22.355 61.3987 21.3917 60.2087 21.3917H56.0153C54.6553 16.8867 51.1137 13.345 46.6087 11.985V7.79166C46.6087 6.62999 45.6453 5.66666 44.4837 5.66666C43.322 5.66666 42.3587 6.62999 42.3587 7.79166V11.3333H36.1253V7.79166C36.1253 6.62999 35.162 5.66666 34.0003 5.66666C32.8387 5.66666 31.8753 6.62999 31.8753 7.79166V11.3333H25.6703V7.79166C25.6703 6.62999 24.707 5.66666 23.5453 5.66666C22.3553 5.66666 21.4203 6.62999 21.4203 7.79166V11.985C16.887 13.345 13.3453 16.8867 11.9853 21.3917H7.79199C6.63033 21.3917 5.66699 22.355 5.66699 23.5167C5.66699 24.7067 6.63033 25.6417 7.79199 25.6417H11.3337V31.875H7.79199C6.63033 31.875 5.66699 32.81 5.66699 34C5.66699 35.1617 6.63033 36.125 7.79199 36.125H11.3337V42.3583H7.79199C6.63033 42.3583 5.66699 43.2933 5.66699 44.4833C5.66699 45.645 6.63033 46.6083 7.79199 46.6083H11.9853C13.317 51.1133 16.887 54.655 21.4203 56.015V60.2083C21.4203 61.37 22.3553 62.3333 23.5453 62.3333C24.707 62.3333 25.6703 61.37 25.6703 60.2083V56.6667H31.9037V60.2083C31.9037 61.37 32.8387 62.3333 34.0287 62.3333C35.1903 62.3333 36.1537 61.37 36.1537 60.2083V56.6667H42.3587V60.2083C42.3587 61.37 43.322 62.3333 44.4837 62.3333C45.6453 62.3333 46.6087 61.37 46.6087 60.2083V56.015C51.1137 54.655 54.6553 51.1133 56.0153 46.6083H60.2087C61.3987 46.6083 62.3337 45.645 62.3337 44.4833C62.3337 43.2933 61.3987 42.3583 60.2087 42.3583H56.667V36.125H60.2087ZM48.9037 40.4033C48.9037 45.0783 45.0787 48.9033 40.4037 48.9033H27.597C22.922 48.9033 19.097 45.0783 19.097 40.4033V27.5967C19.097 22.9217 22.922 19.0967 27.597 19.0967H40.4037C45.0787 19.0967 48.9037 22.9217 48.9037 27.5967V40.4033Z" fill="currentColor"/>
<path d="M28.3902 46.0416H39.6385C43.1802 46.0416 46.0702 43.18 46.0702 39.61V28.3616C46.0702 24.82 43.2085 21.93 39.6385 21.93H28.3902C24.8485 21.93 21.9585 24.7916 21.9585 28.3616V39.61C21.9585 43.18 24.8202 46.0416 28.3902 46.0416Z" fill="currentColor"/>
</svg>
