<svg width="68" height="68" viewBox="0 0 68 68" fill="none" xmlns="http://www.w3.org/2000/svg">
<path d="M59.2449 31.5066C59.2449 45.3616 49.1866 58.3383 35.4449 62.1349C34.5099 62.3899 33.4899 62.3899 32.5549 62.1349C18.8132 58.3383 8.75488 45.3616 8.75488 31.5066V19.0683C8.75488 16.745 10.5116 14.11 12.6933 13.2316L28.4749 6.77165C32.0165 5.32665 36.0115 5.32665 39.5532 6.77165L55.3349 13.2316C57.4882 14.11 59.2733 16.745 59.2733 19.0683L59.2449 31.5066Z" fill="currentColor"/>
<path d="M41.0832 29.75C41.0832 25.84 37.9098 22.6667 33.9998 22.6667C30.0898 22.6667 26.9165 25.84 26.9165 29.75C26.9165 32.9233 29.0132 35.5583 31.8748 36.465V43.9167C31.8748 45.0783 32.8382 46.0417 33.9998 46.0417C35.1615 46.0417 36.1248 45.0783 36.1248 43.9167V36.465C38.9865 35.5583 41.0832 32.9233 41.0832 29.75Z" fill="white"/>
</svg>
